  0
SECTION
  2
HEADER
  9
$ACADVER
  1
AC1009
  0
ENDSEC
  0
SECTION
  2
TABLES
  0
TABLE
  2
LAYER
  70
1
  0
LAYER
  2
Layer_0
  70
0
  62
7
  6
CONTINUOUS
  0
ENDTAB
  0
ENDSEC
  0
SECTION
  2
ENTITIES
  0
CIRCLE
  5
90
  8
Layer_0
  62
7
  10
854
  20
664
  30
0
  40
200.00003
  0
CIRCLE
  5
90
  8
Layer_0
  62
7
  10
853.99994
  20
663.99951
  30
0
  40
17.499996
  0
CIRCLE
  5
90
  8
Layer_0
  62
7
  10
783.19104
  20
593.19104
  30
0
  40
39.999973
  0
CIRCLE
  5
90
  8
Layer_0
  62
7
  10
924.80908
  20
734.80896
  30
0
  40
39.999989
  0
CIRCLE
  5
90
  8
Layer_0
  62
7
  10
924.80908
  20
593.19104
  30
0
  40
39.999973
  0
CIRCLE
  5
90
  8
Layer_0
  62
7
  10
783.19104
  20
734.80896
  30
0
  40
39.999973
  0
POLYLINE
  5
90
  8
Layer_0
  62
7
  70
1
  66
1
  10
0
  20
0
  30
0
  0
VERTEX
  5
90
  8
Layer_0
  10
908.94116
  20
664.9996
  42
0.41421356
  0
VERTEX
  5
91
  8
Layer_0
  10
904.94116
  20
668.9996
  0
VERTEX
  5
92
  8
Layer_0
  10
883.05884
  20
668.9996
  42
0.41421356
  0
VERTEX
  5
93
  8
Layer_0
  10
879.05884
  20
664.9996
  0
VERTEX
  5
94
  8
Layer_0
  10
879.05884
  20
662.9996
  42
0.41421356
  0
VERTEX
  5
95
  8
Layer_0
  10
883.05884
  20
658.9996
  0
VERTEX
  5
96
  8
Layer_0
  10
904.94116
  20
658.9996
  42
0.41421356
  0
VERTEX
  5
97
  8
Layer_0
  10
908.94116
  20
662.9996
  0
SEQEND
  0
POLYLINE
  5
99
  8
Layer_0
  62
7
  70
1
  66
1
  10
0
  20
0
  30
0
  0
VERTEX
  5
99
  8
Layer_0
  10
828.94116
  20
664.9996
  42
0.41421356
  0
VERTEX
  5
9a
  8
Layer_0
  10
824.94116
  20
668.9996
  0
VERTEX
  5
9b
  8
Layer_0
  10
803.05884
  20
668.9996
  42
0.41421356
  0
VERTEX
  5
9c
  8
Layer_0
  10
799.05884
  20
664.9996
  0
VERTEX
  5
9d
  8
Layer_0
  10
799.05884
  20
662.9996
  42
0.41421356
  0
VERTEX
  5
9e
  8
Layer_0
  10
803.05884
  20
658.9996
  0
VERTEX
  5
9f
  8
Layer_0
  10
824.94116
  20
658.9996
  42
0.41421356
  0
VERTEX
  5
a0
  8
Layer_0
  10
828.94116
  20
662.9996
  0
SEQEND
  0
POLYLINE
  5
a2
  8
Layer_0
  62
7
  70
1
  66
1
  10
0
  20
0
  30
0
  0
VERTEX
  5
a2
  8
Layer_0
  10
855
  20
689.05844
  42
0.41421356
  0
VERTEX
  5
a3
  8
Layer_0
  10
859
  20
693.05844
  0
VERTEX
  5
a4
  8
Layer_0
  10
859
  20
714.94077
  42
0.41421356
  0
VERTEX
  5
a5
  8
Layer_0
  10
855
  20
718.94077
  0
VERTEX
  5
a6
  8
Layer_0
  10
853
  20
718.94077
  42
0.41421356
  0
VERTEX
  5
a7
  8
Layer_0
  10
849
  20
714.94077
  0
VERTEX
  5
a8
  8
Layer_0
  10
849
  20
693.05844
  42
0.41421356
  0
VERTEX
  5
a9
  8
Layer_0
  10
853
  20
689.05844
  0
SEQEND
  0
POLYLINE
  5
ab
  8
Layer_0
  62
7
  70
1
  66
1
  10
0
  20
0
  30
0
  0
VERTEX
  5
ab
  8
Layer_0
  10
853
  20
638.9408
  42
0.41421356
  0
VERTEX
  5
ac
  8
Layer_0
  10
849
  20
634.9408
  0
VERTEX
  5
ad
  8
Layer_0
  10
849
  20
613.05847
  42
0.41421356
  0
VERTEX
  5
ae
  8
Layer_0
  10
853
  20
609.05847
  0
VERTEX
  5
af
  8
Layer_0
  10
855
  20
609.05847
  42
0.41421356
  0
VERTEX
  5
b0
  8
Layer_0
  10
859
  20
613.05847
  0
VERTEX
  5
b1
  8
Layer_0
  10
859
  20
634.9408
  42
0.41421356
  0
VERTEX
  5
b2
  8
Layer_0
  10
855
  20
638.9408
  0
SEQEND
  0
CIRCLE
  5
b4
  8
Layer_0
  62
7
  10
854
  20
848
  30
0
  40
3.1500065
  0
CIRCLE
  5
b4
  8
Layer_0
  62
7
  10
834.75574
  20
847.00623
  30
0
  40
3.1500065
  0
CIRCLE
  5
b4
  8
Layer_0
  62
7
  10
815.72833
  20
844.01556
  30
0
  40
3.1500065
  0
CIRCLE
  5
b4
  8
Layer_0
  62
7
  10
797.12372
  20
839.04279
  30
0
  40
3.1500065
  0
CIRCLE
  5
b4
  8
Layer_0
  62
7
  10
779.14636
  20
832.13788
  30
0
  40
3.1500065
  0
CIRCLE
  5
b4
  8
Layer_0
  62
7
  10
761.99231
  20
823.38074
  30
0
  40
3.1500065
  0
CIRCLE
  5
b4
  8
Layer_0
  62
7
  10
745.84625
  20
812.87482
  30
0
  40
3.1500065
  0
CIRCLE
  5
b4
  8
Layer_0
  62
7
  10
730.88129
  20
800.74194
  30
0
  40
3.1500065
  0
CIRCLE
  5
b4
  8
Layer_0
  62
7
  10
717.25793
  20
787.11865
  30
0
  40
3.1500065
  0
CIRCLE
  5
b4
  8
Layer_0
  62
7
  10
705.12506
  20
772.15363
  30
0
  40
3.1500065
  0
CIRCLE
  5
b4
  8
Layer_0
  62
7
  10
694.61914
  20
756.00757
  30
0
  40
3.1500065
  0
CIRCLE
  5
b4
  8
Layer_0
  62
7
  10
685.862
  20
738.85339
  30
0
  40
3.1500065
  0
CIRCLE
  5
b4
  8
Layer_0
  62
7
  10
678.95715
  20
720.87598
  30
0
  40
3.1500065
  0
CIRCLE
  5
b4
  8
Layer_0
  62
7
  10
673.98438
  20
702.27161
  30
0
  40
3.1500065
  0
CIRCLE
  5
b4
  8
Layer_0
  62
7
  10
670.99377
  20
683.24408
  30
0
  40
3.1500065
  0
CIRCLE
  5
b4
  8
Layer_0
  62
7
  10
670
  20
663.99988
  30
0
  40
3.1500065
  0
CIRCLE
  5
b4
  8
Layer_0
  62
7
  10
670.99377
  20
644.75574
  30
0
  40
3.1500065
  0
CIRCLE
  5
b4
  8
Layer_0
  62
7
  10
673.9845
  20
625.72815
  30
0
  40
3.1500065
  0
CIRCLE
  5
b4
  8
Layer_0
  62
7
  10
678.95715
  20
607.12366
  30
0
  40
3.1500065
  0
CIRCLE
  5
b4
  8
Layer_0
  62
7
  10
685.86206
  20
589.14636
  30
0
  40
3.1500065
  0
CIRCLE
  5
b4
  8
Layer_0
  62
7
  10
694.61932
  20
571.99219
  30
0
  40
3.1500065
  0
CIRCLE
  5
b4
  8
Layer_0
  62
7
  10
705.12531
  20
555.84619
  30
0
  40
3.1500065
  0
CIRCLE
  5
b4
  8
Layer_0
  62
7
  10
717.25806
  20
540.88123
  30
0
  40
3.1500065
  0
CIRCLE
  5
b4
  8
Layer_0
  62
7
  10
730.88147
  20
527.25793
  30
0
  40
3.1500065
  0
CIRCLE
  5
b4
  8
Layer_0
  62
7
  10
745.84644
  20
515.12506
  30
0
  40
3.1500065
  0
CIRCLE
  5
b4
  8
Layer_0
  62
7
  10
761.99237
  20
504.6192
  30
0
  40
3.1500065
  0
CIRCLE
  5
b4
  8
Layer_0
  62
7
  10
779.14648
  20
495.86206
  30
0
  40
3.1500065
  0
CIRCLE
  5
b4
  8
Layer_0
  62
7
  10
797.1239
  20
488.95718
  30
0
  40
3.1500065
  0
CIRCLE
  5
b4
  8
Layer_0
  62
7
  10
815.72833
  20
483.98447
  30
0
  40
3.1500065
  0
CIRCLE
  5
b4
  8
Layer_0
  62
7
  10
834.75586
  20
480.9938
  30
0
  40
3.1500065
  0
CIRCLE
  5
b4
  8
Layer_0
  62
7
  10
854.00006
  20
480
  30
0
  40
3.1500065
  0
CIRCLE
  5
b4
  8
Layer_0
  62
7
  10
873.24426
  20
480.9938
  30
0
  40
3.1500065
  0
CIRCLE
  5
b4
  8
Layer_0
  62
7
  10
892.27167
  20
483.9845
  30
0
  40
3.1500065
  0
CIRCLE
  5
b4
  8
Layer_0
  62
7
  10
910.87604
  20
488.95724
  30
0
  40
3.1500065
  0
CIRCLE
  5
b4
  8
Layer_0
  62
7
  10
928.85339
  20
495.86203
  30
0
  40
3.1500065
  0
CIRCLE
  5
b4
  8
Layer_0
  62
7
  10
946.00757
  20
504.61914
  30
0
  40
3.1500065
  0
CIRCLE
  5
b4
  8
Layer_0
  62
7
  10
962.1535
  20
515.12512
  30
0
  40
3.1500065
  0
CIRCLE
  5
b4
  8
Layer_0
  62
7
  10
977.11853
  20
527.25781
  30
0
  40
3.1500065
  0
CIRCLE
  5
b4
  8
Layer_0
  62
7
  10
990.74182
  20
540.88123
  30
0
  40
3.1500065
  0
CIRCLE
  5
b4
  8
Layer_0
  62
7
  10
1002.8748
  20
555.84619
  30
0
  40
3.1500065
  0
CIRCLE
  5
b4
  8
Layer_0
  62
7
  10
1013.3806
  20
571.99219
  30
0
  40
3.1500065
  0
CIRCLE
  5
b4
  8
Layer_0
  62
7
  10
1022.1378
  20
589.14636
  30
0
  40
3.1500065
  0
CIRCLE
  5
b4
  8
Layer_0
  62
7
  10
1029.0427
  20
607.12366
  30
0
  40
3.1500065
  0
CIRCLE
  5
b4
  8
Layer_0
  62
7
  10
1034.0155
  20
625.72809
  30
0
  40
3.1500065
  0
CIRCLE
  5
b4
  8
Layer_0
  62
7
  10
1037.0062
  20
644.75562
  30
0
  40
3.1500065
  0
CIRCLE
  5
b4
  8
Layer_0
  62
7
  10
1038
  20
663.99976
  30
0
  40
3.1500065
  0
CIRCLE
  5
b4
  8
Layer_0
  62
7
  10
1037.0061
  20
683.24402
  30
0
  40
3.1500065
  0
CIRCLE
  5
b4
  8
Layer_0
  62
7
  10
1034.0156
  20
702.27155
  30
0
  40
3.1500065
  0
CIRCLE
  5
b4
  8
Layer_0
  62
7
  10
1029.0428
  20
720.87598
  30
0
  40
3.1500065
  0
CIRCLE
  5
b4
  8
Layer_0
  62
7
  10
1022.1381
  20
738.85333
  30
0
  40
3.1500065
  0
CIRCLE
  5
b4
  8
Layer_0
  62
7
  10
1013.381
  20
756.00751
  30
0
  40
3.1500065
  0
CIRCLE
  5
b4
  8
Layer_0
  62
7
  10
1002.8749
  20
772.15356
  30
0
  40
3.1500065
  0
CIRCLE
  5
b4
  8
Layer_0
  62
7
  10
990.74207
  20
787.11859
  30
0
  40
3.1500065
  0
CIRCLE
  5
b4
  8
Layer_0
  62
7
  10
977.11877
  20
800.74194
  30
0
  40
3.1500065
  0
CIRCLE
  5
b4
  8
Layer_0
  62
7
  10
962.15381
  20
812.87476
  30
0
  40
3.1500065
  0
CIRCLE
  5
b4
  8
Layer_0
  62
7
  10
946.00781
  20
823.38068
  30
0
  40
3.1500065
  0
CIRCLE
  5
b4
  8
Layer_0
  62
7
  10
928.85364
  20
832.13788
  30
0
  40
3.1500065
  0
CIRCLE
  5
b4
  8
Layer_0
  62
7
  10
910.87634
  20
839.04272
  30
0
  40
3.1500065
  0
CIRCLE
  5
b4
  8
Layer_0
  62
7
  10
892.27191
  20
844.0155
  30
0
  40
3.1500065
  0
CIRCLE
  5
b4
  8
Layer_0
  62
7
  10
873.24438
  20
847.00616
  30
0
  40
3.1500065
  0
ENDSEC
  0
EOF
