  0
SECTION
  2
HEADER
  9
$ACADVER
  1
AC1009
  0
ENDSEC
  0
SECTION
  2
TABLES
  0
TABLE
  2
LAYER
  70
1
  0
LAYER
  2
Layer_0
  70
0
  62
7
  6
CONTINUOUS
  0
ENDTAB
  0
ENDSEC
  0
SECTION
  2
ENTITIES
  0
CIRCLE
  5
90
  8
Layer_0
  62
7
  10
332
  20
697
  30
0
  40
173.5
  0
ELLIPSE
  5
90
  8
Layer_0
  62
7
  10
331.99994
  20
856
  30
0
  11
-0.32928467
  21
-3.1328392
  31
0
  40
0.9999913
  41
0
  42
6.2831855
  0
ELLIPSE
  5
90
  8
Layer_0
  62
7
  10
311.23438
  20
854.65692
  30
0
  11
-0.32928467
  21
-3.1328392
  31
0
  40
0.9999913
  41
0
  42
6.2831855
  0
ELLIPSE
  5
90
  8
Layer_0
  62
7
  10
290.83252
  20
850.62048
  30
0
  11
-0.32928467
  21
-3.1328392
  31
0
  40
0.9999913
  41
0
  42
6.2831855
  0
ELLIPSE
  5
90
  8
Layer_0
  62
7
  10
271.1405
  20
843.93829
  30
0
  11
-0.32928467
  21
-3.1328392
  31
0
  40
0.9999913
  41
0
  42
6.2831855
  0
ELLIPSE
  5
90
  8
Layer_0
  62
7
  10
252.4939
  20
834.72632
  30
0
  11
-0.32926941
  21
-3.1328354
  31
0
  40
0.99999303
  41
0
  42
6.2831855
  0
ELLIPSE
  5
90
  8
Layer_0
  62
7
  10
235.20734
  20
823.15399
  30
0
  11
-0.32926941
  21
-3.1328354
  31
0
  40
0.99999303
  41
0
  42
6.2831855
  0
ELLIPSE
  5
90
  8
Layer_0
  62
7
  10
219.57001
  20
809.42999
  30
0
  11
-0.32926941
  21
-3.1328354
  31
0
  40
0.99999303
  41
0
  42
6.2831855
  0
ELLIPSE
  5
90
  8
Layer_0
  62
7
  10
205.84601
  20
793.79272
  30
0
  11
-0.32926941
  21
-3.1328354
  31
0
  40
0.99999303
  41
0
  42
6.2831855
  0
ELLIPSE
  5
90
  8
Layer_0
  62
7
  10
194.27368
  20
776.5061
  30
0
  11
-0.32926941
  21
-3.1328354
  31
0
  40
0.99999303
  41
0
  42
6.2831855
  0
ELLIPSE
  5
90
  8
Layer_0
  62
7
  10
185.06177
  20
757.85956
  30
0
  11
-0.32926941
  21
-3.132843
  31
0
  40
0.9999904
  41
0
  42
6.2831855
  0
ELLIPSE
  5
90
  8
Layer_0
  62
7
  10
178.37952
  20
738.16754
  30
0
  11
-0.32926941
  21
-3.132843
  31
0
  40
0.9999904
  41
0
  42
6.2831855
  0
ELLIPSE
  5
90
  8
Layer_0
  62
7
  10
174.34308
  20
717.76569
  30
0
  11
-0.32926941
  21
-3.132843
  31
0
  40
0.9999904
  41
0
  42
6.2831855
  0
ELLIPSE
  5
90
  8
Layer_0
  62
7
  10
173
  20
697.00006
  30
0
  11
-0.32926941
  21
-3.132843
  31
0
  40
0.9999904
  41
0
  42
6.2831855
  0
ELLIPSE
  5
90
  8
Layer_0
  62
7
  10
174.34308
  20
676.2345
  30
0
  11
-0.32926941
  21
-3.132843
  31
0
  40
0.9999904
  41
0
  42
6.2831855
  0
ELLIPSE
  5
90
  8
Layer_0
  62
7
  10
178.37952
  20
655.83264
  30
0
  11
-0.32926941
  21
-3.132843
  31
0
  40
0.9999904
  41
0
  42
6.2831855
  0
ELLIPSE
  5
90
  8
Layer_0
  62
7
  10
185.06171
  20
636.14063
  30
0
  11
-0.32926941
  21
-3.132843
  31
0
  40
0.99999082
  41
0
  42
6.2831855
  0
ELLIPSE
  5
90
  8
Layer_0
  62
7
  10
194.27368
  20
617.49402
  30
0
  11
-0.32926941
  21
-3.132843
  31
0
  40
0.99999082
  41
0
  42
6.2831855
  0
ELLIPSE
  5
90
  8
Layer_0
  62
7
  10
205.84595
  20
600.20746
  30
0
  11
-0.32926941
  21
-3.132843
  31
0
  40
0.99999082
  41
0
  42
6.2831855
  0
ELLIPSE
  5
90
  8
Layer_0
  62
7
  10
219.56995
  20
584.57019
  30
0
  11
-0.32926941
  21
-3.132843
  31
0
  40
0.99999082
  41
0
  42
6.2831855
  0
ELLIPSE
  5
90
  8
Layer_0
  62
7
  10
235.20728
  20
570.84619
  30
0
  11
-0.32926941
  21
-3.132843
  31
0
  40
0.99999082
  41
0
  42
6.2831855
  0
ELLIPSE
  5
90
  8
Layer_0
  62
7
  10
252.49377
  20
559.2738
  30
0
  11
-0.32926941
  21
-3.132843
  31
0
  40
0.99999082
  41
0
  42
6.2831855
  0
ELLIPSE
  5
90
  8
Layer_0
  62
7
  10
271.14038
  20
550.06189
  30
0
  11
-0.32928467
  21
-3.132843
  31
0
  40
0.99999028
  41
0
  42
6.2831855
  0
ELLIPSE
  5
90
  8
Layer_0
  62
7
  10
290.8324
  20
543.37958
  30
0
  11
-0.32928467
  21
-3.132843
  31
0
  40
0.99999028
  41
0
  42
6.2831855
  0
ELLIPSE
  5
90
  8
Layer_0
  62
7
  10
311.23425
  20
539.34314
  30
0
  11
-0.32928467
  21
-3.132843
  31
0
  40
0.99999028
  41
0
  42
6.2831855
  0
ELLIPSE
  5
90
  8
Layer_0
  62
7
  10
331.99988
  20
538.00006
  30
0
  11
-0.32928467
  21
-3.132843
  31
0
  40
0.99999028
  41
0
  42
6.2831855
  0
ELLIPSE
  5
90
  8
Layer_0
  62
7
  10
352.7655
  20
539.34314
  30
0
  11
-0.32928467
  21
-3.132843
  31
0
  40
0.99999028
  41
0
  42
6.2831855
  0
ELLIPSE
  5
90
  8
Layer_0
  62
7
  10
373.16736
  20
543.37958
  30
0
  11
-0.32928467
  21
-3.132843
  31
0
  40
0.99999028
  41
0
  42
6.2831855
  0
ELLIPSE
  5
90
  8
Layer_0
  62
7
  10
392.85938
  20
550.06183
  30
0
  11
-0.32928467
  21
-3.132843
  31
0
  40
0.99999028
  41
0
  42
6.2831855
  0
ELLIPSE
  5
90
  8
Layer_0
  62
7
  10
411.50592
  20
559.2738
  30
0
  11
-0.32928467
  21
-3.132843
  31
0
  40
0.99999028
  41
0
  42
6.2831855
  0
ELLIPSE
  5
90
  8
Layer_0
  62
7
  10
428.7926
  20
570.84601
  30
0
  11
-0.32928467
  21
-3.132843
  31
0
  40
0.99999028
  41
0
  42
6.2831855
  0
ELLIPSE
  5
90
  8
Layer_0
  62
7
  10
444.42993
  20
584.57007
  30
0
  11
-0.32928467
  21
-3.132843
  31
0
  40
0.99999028
  41
0
  42
6.2831855
  0
ELLIPSE
  5
90
  8
Layer_0
  62
7
  10
458.15387
  20
600.2074
  30
0
  11
-0.32928467
  21
-3.132843
  31
0
  40
0.99999028
  41
0
  42
6.2831855
  0
ELLIPSE
  5
90
  8
Layer_0
  62
7
  10
469.7262
  20
617.49396
  30
0
  11
-0.32928467
  21
-3.132843
  31
0
  40
0.99999028
  41
0
  42
6.2831855
  0
ELLIPSE
  5
90
  8
Layer_0
  62
7
  10
478.93817
  20
636.1405
  30
0
  11
-0.32928467
  21
-3.132843
  31
0
  40
0.99999028
  41
0
  42
6.2831855
  0
ELLIPSE
  5
90
  8
Layer_0
  62
7
  10
485.62036
  20
655.83258
  30
0
  11
-0.32928467
  21
-3.132843
  31
0
  40
0.99998987
  41
0
  42
6.2831855
  0
ELLIPSE
  5
90
  8
Layer_0
  62
7
  10
489.65686
  20
676.23444
  30
0
  11
-0.32928467
  21
-3.132843
  31
0
  40
0.99998987
  41
0
  42
6.2831855
  0
ELLIPSE
  5
90
  8
Layer_0
  62
7
  10
490.99988
  20
697
  30
0
  11
-0.32928467
  21
-3.132843
  31
0
  40
0.99998987
  41
0
  42
6.2831855
  0
ELLIPSE
  5
90
  8
Layer_0
  62
7
  10
489.65686
  20
717.76563
  30
0
  11
-0.32928467
  21
-3.132843
  31
0
  40
0.99998987
  41
0
  42
6.2831855
  0
ELLIPSE
  5
90
  8
Layer_0
  62
7
  10
485.62042
  20
738.16748
  30
0
  11
-0.32928467
  21
-3.132843
  31
0
  40
0.99998987
  41
0
  42
6.2831855
  0
ELLIPSE
  5
90
  8
Layer_0
  62
7
  10
478.93817
  20
757.8595
  30
0
  11
-0.32928467
  21
-3.132843
  31
0
  40
0.99998987
  41
0
  42
6.2831855
  0
ELLIPSE
  5
90
  8
Layer_0
  62
7
  10
469.7262
  20
776.50604
  30
0
  11
-0.32928467
  21
-3.1328354
  31
0
  40
0.99999261
  41
0
  42
6.2831855
  0
ELLIPSE
  5
90
  8
Layer_0
  62
7
  10
458.15387
  20
793.79272
  30
0
  11
-0.32928467
  21
-3.1328354
  31
0
  40
0.99999261
  41
0
  42
6.2831855
  0
ELLIPSE
  5
90
  8
Layer_0
  62
7
  10
444.42981
  20
809.43005
  30
0
  11
-0.32928467
  21
-3.1328354
  31
0
  40
0.99999261
  41
0
  42
6.2831855
  0
ELLIPSE
  5
90
  8
Layer_0
  62
7
  10
428.79248
  20
823.15405
  30
0
  11
-0.32928467
  21
-3.1328354
  31
0
  40
0.99999261
  41
0
  42
6.2831855
  0
ELLIPSE
  5
90
  8
Layer_0
  62
7
  10
411.50586
  20
834.72632
  30
0
  11
-0.32928467
  21
-3.1328354
  31
0
  40
0.99999261
  41
0
  42
6.2831855
  0
ELLIPSE
  5
90
  8
Layer_0
  62
7
  10
392.85938
  20
843.93829
  30
0
  11
-0.32928467
  21
-3.1328392
  31
0
  40
0.9999913
  41
0
  42
6.2831855
  0
ELLIPSE
  5
90
  8
Layer_0
  62
7
  10
373.16736
  20
850.62048
  30
0
  11
-0.32928467
  21
-3.1328392
  31
0
  40
0.9999913
  41
0
  42
6.2831855
  0
ELLIPSE
  5
90
  8
Layer_0
  62
7
  10
352.7655
  20
854.65692
  30
0
  11
-0.32928467
  21
-3.1328392
  31
0
  40
0.9999913
  41
0
  42
6.2831855
  0
CIRCLE
  5
90
  8
Layer_0
  62
7
  10
331.99988
  20
696.99951
  30
0
  40
17.499996
  0
CIRCLE
  5
90
  8
Layer_0
  62
7
  10
271.19098
  20
636.19104
  30
0
  40
35.152988
  0
CIRCLE
  5
90
  8
Layer_0
  62
7
  10
392.80896
  20
757.80902
  30
0
  40
35.153004
  0
CIRCLE
  5
90
  8
Layer_0
  62
7
  10
392.80896
  20
636.19104
  30
0
  40
35.152988
  0
CIRCLE
  5
90
  8
Layer_0
  62
7
  10
271.19098
  20
757.80896
  30
0
  40
35.152988
  0
POLYLINE
  5
90
  8
Layer_0
  62
7
  70
1
  66
1
  10
0
  20
0
  30
0
  0
VERTEX
  5
90
  8
Layer_0
  10
386.94107
  20
697.99963
  42
0.41421356
  0
VERTEX
  5
91
  8
Layer_0
  10
382.94107
  20
701.99963
  0
VERTEX
  5
92
  8
Layer_0
  10
361.05875
  20
701.99963
  42
0.41421356
  0
VERTEX
  5
93
  8
Layer_0
  10
357.05875
  20
697.99963
  0
VERTEX
  5
94
  8
Layer_0
  10
357.05875
  20
695.99963
  42
0.41421356
  0
VERTEX
  5
95
  8
Layer_0
  10
361.05875
  20
691.99963
  0
VERTEX
  5
96
  8
Layer_0
  10
382.94107
  20
691.99963
  42
0.41421356
  0
VERTEX
  5
97
  8
Layer_0
  10
386.94107
  20
695.99963
  0
SEQEND
  0
POLYLINE
  5
99
  8
Layer_0
  62
7
  70
1
  66
1
  10
0
  20
0
  30
0
  0
VERTEX
  5
99
  8
Layer_0
  10
306.9411
  20
697.99963
  42
0.41421356
  0
VERTEX
  5
9a
  8
Layer_0
  10
302.9411
  20
701.99963
  0
VERTEX
  5
9b
  8
Layer_0
  10
281.05878
  20
701.99963
  42
0.41421356
  0
VERTEX
  5
9c
  8
Layer_0
  10
277.05878
  20
697.99963
  0
VERTEX
  5
9d
  8
Layer_0
  10
277.05878
  20
695.99963
  42
0.41421356
  0
VERTEX
  5
9e
  8
Layer_0
  10
281.05878
  20
691.99963
  0
VERTEX
  5
9f
  8
Layer_0
  10
302.9411
  20
691.99963
  42
0.41421356
  0
VERTEX
  5
a0
  8
Layer_0
  10
306.9411
  20
695.99963
  0
SEQEND
  0
POLYLINE
  5
a2
  8
Layer_0
  62
7
  70
1
  66
1
  10
0
  20
0
  30
0
  0
VERTEX
  5
a2
  8
Layer_0
  10
332.99991
  20
722.05847
  42
0.41421356
  0
VERTEX
  5
a3
  8
Layer_0
  10
336.99991
  20
726.05847
  0
VERTEX
  5
a4
  8
Layer_0
  10
336.99991
  20
747.9408
  42
0.41421356
  0
VERTEX
  5
a5
  8
Layer_0
  10
332.99991
  20
751.9408
  0
VERTEX
  5
a6
  8
Layer_0
  10
330.99991
  20
751.9408
  42
0.41421356
  0
VERTEX
  5
a7
  8
Layer_0
  10
326.99991
  20
747.9408
  0
VERTEX
  5
a8
  8
Layer_0
  10
326.99991
  20
726.05847
  42
0.41421356
  0
VERTEX
  5
a9
  8
Layer_0
  10
330.99991
  20
722.05847
  0
SEQEND
  0
POLYLINE
  5
ab
  8
Layer_0
  62
7
  70
1
  66
1
  10
0
  20
0
  30
0
  0
VERTEX
  5
ab
  8
Layer_0
  10
330.99991
  20
671.94081
  42
0.41421356
  0
VERTEX
  5
ac
  8
Layer_0
  10
326.99991
  20
667.94081
  0
VERTEX
  5
ad
  8
Layer_0
  10
326.99991
  20
646.05849
  42
0.41421356
  0
VERTEX
  5
ae
  8
Layer_0
  10
330.99991
  20
642.05847
  0
VERTEX
  5
af
  8
Layer_0
  10
332.99991
  20
642.05847
  42
0.41421356
  0
VERTEX
  5
b0
  8
Layer_0
  10
336.99991
  20
646.05849
  0
VERTEX
  5
b1
  8
Layer_0
  10
336.99991
  20
667.94081
  42
0.41421356
  0
VERTEX
  5
b2
  8
Layer_0
  10
332.99991
  20
671.94081
  0
SEQEND
  0
ENDSEC
  0
EOF
