<?xml version="1.0" encoding="UTF-8" standalone="no"?>
<svg xmlns="http://www.w3.org/2000/svg" xmlns:xlink="http://www.w3.org/1999/xlink" width="347.000mm" height="347.000mm" viewBox="158.500000 29.500000 347.000000 347.000000">
    <circle transform="matrix(1,0,0,1,332,203)" style="stroke:#000000;stroke-width:0.050000mm;fill:none" r="173.500031" cx="0" cy="0"/>
    <circle transform="matrix(-0.090604,0.862049,0.862042,0.090605,331.999939,44.000008)" style="stroke:#000000;stroke-width:0.057684mm;fill:none" r="3.634177" cx="0" cy="0"/>
    <circle transform="matrix(-0.090604,0.862049,0.862042,0.090605,311.234375,45.343079)" style="stroke:#000000;stroke-width:0.057684mm;fill:none" r="3.634177" cx="0" cy="0"/>
    <circle transform="matrix(-0.090604,0.862049,0.862042,0.090605,290.83252,49.379501)" style="stroke:#000000;stroke-width:0.057684mm;fill:none" r="3.634177" cx="0" cy="0"/>
    <circle transform="matrix(-0.090604,0.862049,0.862042,0.090605,271.140503,56.061722)" style="stroke:#000000;stroke-width:0.057684mm;fill:none" r="3.634177" cx="0" cy="0"/>
    <circle transform="matrix(-0.090604,0.862049,0.862042,0.090605,252.493896,65.273674)" style="stroke:#000000;stroke-width:0.057684mm;fill:none" r="3.634177" cx="0" cy="0"/>
    <circle transform="matrix(-0.090604,0.862049,0.862042,0.090605,235.207336,76.846008)" style="stroke:#000000;stroke-width:0.057684mm;fill:none" r="3.634177" cx="0" cy="0"/>
    <circle transform="matrix(-0.090604,0.862049,0.862042,0.090605,219.570007,90.570007)" style="stroke:#000000;stroke-width:0.057684mm;fill:none" r="3.634177" cx="0" cy="0"/>
    <circle transform="matrix(-0.090604,0.862049,0.862042,0.090605,205.846008,106.207306)" style="stroke:#000000;stroke-width:0.057684mm;fill:none" r="3.634177" cx="0" cy="0"/>
    <circle transform="matrix(-0.090604,0.862049,0.862042,0.090605,194.273682,123.493896)" style="stroke:#000000;stroke-width:0.057684mm;fill:none" r="3.634177" cx="0" cy="0"/>
    <circle transform="matrix(-0.090604,0.862049,0.862042,0.090605,185.061768,142.140427)" style="stroke:#000000;stroke-width:0.057684mm;fill:none" r="3.634177" cx="0" cy="0"/>
    <circle transform="matrix(-0.090604,0.862049,0.862042,0.090605,178.379517,161.832458)" style="stroke:#000000;stroke-width:0.057684mm;fill:none" r="3.634177" cx="0" cy="0"/>
    <circle transform="matrix(-0.090604,0.862049,0.862042,0.090605,174.343079,182.234329)" style="stroke:#000000;stroke-width:0.057684mm;fill:none" r="3.634177" cx="0" cy="0"/>
    <circle transform="matrix(-0.090604,0.862049,0.862042,0.090605,173,202.999939)" style="stroke:#000000;stroke-width:0.057684mm;fill:none" r="3.634177" cx="0" cy="0"/>
    <circle transform="matrix(-0.090604,0.862049,0.862042,0.090605,174.343079,223.765503)" style="stroke:#000000;stroke-width:0.057684mm;fill:none" r="3.634177" cx="0" cy="0"/>
    <circle transform="matrix(-0.090604,0.862049,0.862042,0.090605,178.379517,244.167358)" style="stroke:#000000;stroke-width:0.057684mm;fill:none" r="3.634177" cx="0" cy="0"/>
    <circle transform="matrix(-0.090604,0.862049,0.862042,0.090605,185.061707,263.859375)" style="stroke:#000000;stroke-width:0.057684mm;fill:none" r="3.634177" cx="0" cy="0"/>
    <circle transform="matrix(-0.090604,0.862049,0.862042,0.090605,194.273682,282.505981)" style="stroke:#000000;stroke-width:0.057684mm;fill:none" r="3.634177" cx="0" cy="0"/>
    <circle transform="matrix(-0.090604,0.862049,0.862042,0.090605,205.845947,299.792542)" style="stroke:#000000;stroke-width:0.057684mm;fill:none" r="3.634177" cx="0" cy="0"/>
    <circle transform="matrix(-0.090604,0.862049,0.862042,0.090605,219.569946,315.42981)" style="stroke:#000000;stroke-width:0.057684mm;fill:none" r="3.634177" cx="0" cy="0"/>
    <circle transform="matrix(-0.090604,0.862049,0.862042,0.090605,235.207275,329.153809)" style="stroke:#000000;stroke-width:0.057684mm;fill:none" r="3.634177" cx="0" cy="0"/>
    <circle transform="matrix(-0.090604,0.862049,0.862042,0.090605,252.493774,340.726196)" style="stroke:#000000;stroke-width:0.057684mm;fill:none" r="3.634177" cx="0" cy="0"/>
    <circle transform="matrix(-0.090604,0.862049,0.862042,0.090605,271.140381,349.93811)" style="stroke:#000000;stroke-width:0.057684mm;fill:none" r="3.634177" cx="0" cy="0"/>
    <circle transform="matrix(-0.090604,0.862049,0.862042,0.090605,290.832397,356.620422)" style="stroke:#000000;stroke-width:0.057684mm;fill:none" r="3.634177" cx="0" cy="0"/>
    <circle transform="matrix(-0.090604,0.862049,0.862042,0.090605,311.234253,360.65686)" style="stroke:#000000;stroke-width:0.057684mm;fill:none" r="3.634177" cx="0" cy="0"/>
    <circle transform="matrix(-0.090604,0.862049,0.862042,0.090605,331.999878,361.999939)" style="stroke:#000000;stroke-width:0.057684mm;fill:none" r="3.634177" cx="0" cy="0"/>
    <circle transform="matrix(-0.090604,0.862049,0.862042,0.090605,352.765503,360.65686)" style="stroke:#000000;stroke-width:0.057684mm;fill:none" r="3.634177" cx="0" cy="0"/>
    <circle transform="matrix(-0.090604,0.862049,0.862042,0.090605,373.167358,356.620422)" style="stroke:#000000;stroke-width:0.057684mm;fill:none" r="3.634177" cx="0" cy="0"/>
    <circle transform="matrix(-0.090604,0.862049,0.862042,0.090605,392.859375,349.938171)" style="stroke:#000000;stroke-width:0.057684mm;fill:none" r="3.634177" cx="0" cy="0"/>
    <circle transform="matrix(-0.090604,0.862049,0.862042,0.090605,411.50592,340.726196)" style="stroke:#000000;stroke-width:0.057684mm;fill:none" r="3.634177" cx="0" cy="0"/>
    <circle transform="matrix(-0.090604,0.862049,0.862042,0.090605,428.792603,329.153992)" style="stroke:#000000;stroke-width:0.057684mm;fill:none" r="3.634177" cx="0" cy="0"/>
    <circle transform="matrix(-0.090604,0.862049,0.862042,0.090605,444.429932,315.429932)" style="stroke:#000000;stroke-width:0.057684mm;fill:none" r="3.634177" cx="0" cy="0"/>
    <circle transform="matrix(-0.090604,0.862049,0.862042,0.090605,458.15387,299.792603)" style="stroke:#000000;stroke-width:0.057684mm;fill:none" r="3.634177" cx="0" cy="0"/>
    <circle transform="matrix(-0.090604,0.862049,0.862042,0.090605,469.726196,282.506042)" style="stroke:#000000;stroke-width:0.057684mm;fill:none" r="3.634177" cx="0" cy="0"/>
    <circle transform="matrix(-0.090604,0.862049,0.862042,0.090605,478.938171,263.859497)" style="stroke:#000000;stroke-width:0.057684mm;fill:none" r="3.634177" cx="0" cy="0"/>
    <circle transform="matrix(-0.090604,0.862049,0.862042,0.090605,485.620361,244.167419)" style="stroke:#000000;stroke-width:0.057684mm;fill:none" r="3.634177" cx="0" cy="0"/>
    <circle transform="matrix(-0.090604,0.862049,0.862042,0.090605,489.65686,223.765564)" style="stroke:#000000;stroke-width:0.057684mm;fill:none" r="3.634177" cx="0" cy="0"/>
    <circle transform="matrix(-0.090604,0.862049,0.862042,0.090605,490.999878,203)" style="stroke:#000000;stroke-width:0.057684mm;fill:none" r="3.634177" cx="0" cy="0"/>
    <circle transform="matrix(-0.090604,0.862049,0.862042,0.090605,489.65686,182.234406)" style="stroke:#000000;stroke-width:0.057684mm;fill:none" r="3.634177" cx="0" cy="0"/>
    <circle transform="matrix(-0.090604,0.862049,0.862042,0.090605,485.620422,161.832504)" style="stroke:#000000;stroke-width:0.057684mm;fill:none" r="3.634177" cx="0" cy="0"/>
    <circle transform="matrix(-0.090604,0.862049,0.862042,0.090605,478.938171,142.140488)" style="stroke:#000000;stroke-width:0.057684mm;fill:none" r="3.634177" cx="0" cy="0"/>
    <circle transform="matrix(-0.090604,0.862049,0.862042,0.090605,469.726196,123.493958)" style="stroke:#000000;stroke-width:0.057684mm;fill:none" r="3.634177" cx="0" cy="0"/>
    <circle transform="matrix(-0.090604,0.862049,0.862042,0.090605,458.15387,106.207306)" style="stroke:#000000;stroke-width:0.057684mm;fill:none" r="3.634177" cx="0" cy="0"/>
    <circle transform="matrix(-0.090604,0.862049,0.862042,0.090605,444.42981,90.569962)" style="stroke:#000000;stroke-width:0.057684mm;fill:none" r="3.634177" cx="0" cy="0"/>
    <circle transform="matrix(-0.090604,0.862049,0.862042,0.090605,428.79248,76.845947)" style="stroke:#000000;stroke-width:0.057684mm;fill:none" r="3.634177" cx="0" cy="0"/>
    <circle transform="matrix(-0.090604,0.862049,0.862042,0.090605,411.505859,65.273651)" style="stroke:#000000;stroke-width:0.057684mm;fill:none" r="3.634177" cx="0" cy="0"/>
    <circle transform="matrix(-0.090604,0.862049,0.862042,0.090605,392.859375,56.061691)" style="stroke:#000000;stroke-width:0.057684mm;fill:none" r="3.634177" cx="0" cy="0"/>
    <circle transform="matrix(-0.090604,0.862049,0.862042,0.090605,373.167358,49.379494)" style="stroke:#000000;stroke-width:0.057684mm;fill:none" r="3.634177" cx="0" cy="0"/>
    <circle transform="matrix(-0.090604,0.862049,0.862042,0.090605,352.765503,45.343063)" style="stroke:#000000;stroke-width:0.057684mm;fill:none" r="3.634177" cx="0" cy="0"/>
    <circle transform="matrix(1,0,0,-1,331.999878,203.000488)" style="stroke:#000000;stroke-width:0.050000mm;fill:none" r="17.5" cx="0" cy="0"/>
    <circle transform="matrix(0.935523,-0.935523,-0.935523,-0.935523,271.190979,263.80896)" style="stroke:#000000;stroke-width:0.037792mm;fill:none" r="26.570082" cx="0" cy="0"/>
    <circle transform="matrix(0.935523,-0.935523,-0.935523,-0.935523,392.80896,142.190979)" style="stroke:#000000;stroke-width:0.037792mm;fill:none" r="26.570093" cx="0" cy="0"/>
    <circle transform="matrix(-0.935523,-0.935523,-0.935523,0.935523,392.80896,263.80896)" style="stroke:#000000;stroke-width:0.037792mm;fill:none" r="26.570082" cx="0" cy="0"/>
    <circle transform="matrix(-0.935523,-0.935523,-0.935523,0.935523,271.190979,142.19104)" style="stroke:#000000;stroke-width:0.037792mm;fill:none" r="26.570082" cx="0" cy="0"/>
    <path transform="translate(158.5,29.499969)" style="stroke:#000000;stroke-width:0.050000mm;fill:none" d="M228.441071,172.500397C228.441071,170.29126,226.650208,168.500397,224.441071,168.500397L202.558746,168.500397C200.349609,168.500397,198.558746,170.29126,198.558746,172.500397L198.558746,174.500397C198.558746,176.709534,200.349609,178.500397,202.558746,178.500397L224.441071,178.500397C226.650208,178.500397,228.441071,176.709534,228.441071,174.500397L228.441071,172.500397z"/>
    <path transform="translate(158.5,29.499969)" style="stroke:#000000;stroke-width:0.050000mm;fill:none" d="M148.441086,172.500397C148.441086,170.29126,146.650223,168.500397,144.441086,168.500397L122.558762,168.500397C120.349617,168.500397,118.558762,170.29126,118.558762,172.500397L118.558762,174.500397C118.558762,176.709534,120.349617,178.500397,122.558762,178.500397L144.441086,178.500397C146.650223,178.500397,148.441086,176.709534,148.441086,174.500397L148.441086,172.500397z"/>
    <path transform="translate(158.5,29.499969)" style="stroke:#000000;stroke-width:0.050000mm;fill:none" d="M174.499908,148.441559C176.709045,148.441559,178.499908,146.650696,178.499908,144.441559L178.499908,122.559227C178.499908,120.350098,176.709045,118.559227,174.499908,118.559227L172.499908,118.559227C170.290771,118.559227,168.499908,120.350098,168.499908,122.559227L168.499908,144.441559C168.499908,146.650696,170.290771,148.441559,172.499908,148.441559L174.499908,148.441559z"/>
    <path transform="translate(158.5,29.499969)" style="stroke:#000000;stroke-width:0.050000mm;fill:none" d="M172.499908,198.559219C170.290771,198.559219,168.499908,200.350082,168.499908,202.559219L168.499908,224.441544C168.499908,226.650681,170.290771,228.441544,172.499908,228.441544L174.499908,228.441544C176.709045,228.441544,178.499908,226.650681,178.499908,224.441544L178.499908,202.559219C178.499908,200.350082,176.709045,198.559219,174.499908,198.559219L172.499908,198.559219z"/>
</svg>
