  0
SECTION
  2
HEADER
  9
$ACADVER
  1
AC1009
  0
ENDSEC
  0
SECTION
  2
TABLES
  0
TABLE
  2
LAYER
  70
1
  0
LAYER
  2
Layer_0
  70
0
  62
7
  6
CONTINUOUS
  0
ENDTAB
  0
ENDSEC
  0
SECTION
  2
ENTITIES
  0
CIRCLE
  5
90
  8
Layer_0
  62
7
  10
767
  20
298
  30
0
  40
112.50001
  0
CIRCLE
  5
90
  8
Layer_0
  62
7
  10
767
  20
298
  30
0
  40
17.5
  0
POLYLINE
  5
90
  8
Layer_0
  62
7
  66
1
  10
0
  20
0
  30
0
  0
VERTEX
  5
90
  8
Layer_0
  10
819.01825
  20
293
  0
VERTEX
  5
91
  8
Layer_0
  10
795.00201
  20
293
  0
SEQEND
  0
POLYLINE
  5
93
  8
Layer_0
  62
7
  66
1
  10
0
  20
0
  30
0
  0
VERTEX
  5
93
  8
Layer_0
  10
795.00201
  20
303
  0
VERTEX
  5
94
  8
Layer_0
  10
819.01825
  20
303
  0
SEQEND
  0
POLYLINE
  5
96
  8
Layer_0
  62
7
  66
1
  10
0
  20
0
  30
0
  0
VERTEX
  5
96
  8
Layer_0
  10
822.02028
  20
298
  0
VERTEX
  5
97
  8
Layer_0
  10
822.00478
  20
297.48878
  0
VERTEX
  5
98
  8
Layer_0
  10
821.95929
  20
296.99233
  0
VERTEX
  5
99
  8
Layer_0
  10
821.88531
  20
296.51315
  0
VERTEX
  5
9a
  8
Layer_0
  10
821.78436
  20
296.05377
  0
VERTEX
  5
9b
  8
Layer_0
  10
821.65795
  20
295.6167
  0
VERTEX
  5
9c
  8
Layer_0
  10
821.50758
  20
295.20445
  0
VERTEX
  5
9d
  8
Layer_0
  10
821.33476
  20
294.81954
  0
VERTEX
  5
9e
  8
Layer_0
  10
821.141
  20
294.46447
  0
VERTEX
  5
9f
  8
Layer_0
  10
820.92782
  20
294.14176
  0
VERTEX
  5
a0
  8
Layer_0
  10
820.69671
  20
293.85392
  0
VERTEX
  5
a1
  8
Layer_0
  10
820.44919
  20
293.60347
  0
VERTEX
  5
a2
  8
Layer_0
  10
820.18677
  20
293.39292
  0
VERTEX
  5
a3
  8
Layer_0
  10
819.91096
  20
293.22479
  0
VERTEX
  5
a4
  8
Layer_0
  10
819.62326
  20
293.10158
  0
VERTEX
  5
a5
  8
Layer_0
  10
819.32519
  20
293.02581
  0
VERTEX
  5
a6
  8
Layer_0
  10
819.01825
  20
293
  0
SEQEND
  0
POLYLINE
  5
a8
  8
Layer_0
  62
7
  66
1
  10
0
  20
0
  30
0
  0
VERTEX
  5
a8
  8
Layer_0
  10
819.01825
  20
303
  0
VERTEX
  5
a9
  8
Layer_0
  10
819.32519
  20
302.97419
  0
VERTEX
  5
aa
  8
Layer_0
  10
819.62326
  20
302.89842
  0
VERTEX
  5
ab
  8
Layer_0
  10
819.91096
  20
302.77521
  0
VERTEX
  5
ac
  8
Layer_0
  10
820.18677
  20
302.60708
  0
VERTEX
  5
ad
  8
Layer_0
  10
820.44919
  20
302.39653
  0
VERTEX
  5
ae
  8
Layer_0
  10
820.69671
  20
302.14608
  0
VERTEX
  5
af
  8
Layer_0
  10
820.92782
  20
301.85824
  0
VERTEX
  5
b0
  8
Layer_0
  10
821.141
  20
301.53553
  0
VERTEX
  5
b1
  8
Layer_0
  10
821.33476
  20
301.18046
  0
VERTEX
  5
b2
  8
Layer_0
  10
821.50758
  20
300.79555
  0
VERTEX
  5
b3
  8
Layer_0
  10
821.65795
  20
300.3833
  0
VERTEX
  5
b4
  8
Layer_0
  10
821.78436
  20
299.94623
  0
VERTEX
  5
b5
  8
Layer_0
  10
821.88531
  20
299.48685
  0
VERTEX
  5
b6
  8
Layer_0
  10
821.95929
  20
299.00767
  0
VERTEX
  5
b7
  8
Layer_0
  10
822.00478
  20
298.51122
  0
VERTEX
  5
b8
  8
Layer_0
  10
822.02028
  20
298
  0
SEQEND
  0
POLYLINE
  5
ba
  8
Layer_0
  62
7
  66
1
  10
0
  20
0
  30
0
  0
VERTEX
  5
ba
  8
Layer_0
  10
795.00201
  20
293
  0
VERTEX
  5
bb
  8
Layer_0
  10
794.69507
  20
293.02581
  0
VERTEX
  5
bc
  8
Layer_0
  10
794.397
  20
293.10158
  0
VERTEX
  5
bd
  8
Layer_0
  10
794.1093
  20
293.22479
  0
VERTEX
  5
be
  8
Layer_0
  10
793.83349
  20
293.39292
  0
VERTEX
  5
bf
  8
Layer_0
  10
793.57107
  20
293.60347
  0
VERTEX
  5
c0
  8
Layer_0
  10
793.32355
  20
293.85392
  0
VERTEX
  5
c1
  8
Layer_0
  10
793.09245
  20
294.14176
  0
VERTEX
  5
c2
  8
Layer_0
  10
792.87926
  20
294.46447
  0
VERTEX
  5
c3
  8
Layer_0
  10
792.6855
  20
294.81954
  0
VERTEX
  5
c4
  8
Layer_0
  10
792.51269
  20
295.20445
  0
VERTEX
  5
c5
  8
Layer_0
  10
792.36232
  20
295.6167
  0
VERTEX
  5
c6
  8
Layer_0
  10
792.2359
  20
296.05377
  0
VERTEX
  5
c7
  8
Layer_0
  10
792.13495
  20
296.51315
  0
VERTEX
  5
c8
  8
Layer_0
  10
792.06098
  20
296.99233
  0
VERTEX
  5
c9
  8
Layer_0
  10
792.01549
  20
297.48878
  0
VERTEX
  5
ca
  8
Layer_0
  10
791.99999
  20
298
  0
SEQEND
  0
POLYLINE
  5
cc
  8
Layer_0
  62
7
  66
1
  10
0
  20
0
  30
0
  0
VERTEX
  5
cc
  8
Layer_0
  10
791.99999
  20
298
  0
VERTEX
  5
cd
  8
Layer_0
  10
792.01549
  20
298.51122
  0
VERTEX
  5
ce
  8
Layer_0
  10
792.06098
  20
299.00767
  0
VERTEX
  5
cf
  8
Layer_0
  10
792.13495
  20
299.48685
  0
VERTEX
  5
d0
  8
Layer_0
  10
792.2359
  20
299.94623
  0
VERTEX
  5
d1
  8
Layer_0
  10
792.36232
  20
300.3833
  0
VERTEX
  5
d2
  8
Layer_0
  10
792.51269
  20
300.79555
  0
VERTEX
  5
d3
  8
Layer_0
  10
792.6855
  20
301.18046
  0
VERTEX
  5
d4
  8
Layer_0
  10
792.87926
  20
301.53553
  0
VERTEX
  5
d5
  8
Layer_0
  10
793.09245
  20
301.85824
  0
VERTEX
  5
d6
  8
Layer_0
  10
793.32355
  20
302.14608
  0
VERTEX
  5
d7
  8
Layer_0
  10
793.57107
  20
302.39653
  0
VERTEX
  5
d8
  8
Layer_0
  10
793.83349
  20
302.60708
  0
VERTEX
  5
d9
  8
Layer_0
  10
794.1093
  20
302.77521
  0
VERTEX
  5
da
  8
Layer_0
  10
794.397
  20
302.89842
  0
VERTEX
  5
db
  8
Layer_0
  10
794.69507
  20
302.97419
  0
VERTEX
  5
dc
  8
Layer_0
  10
795.00201
  20
303
  0
SEQEND
  0
POLYLINE
  5
de
  8
Layer_0
  62
7
  66
1
  10
0
  20
0
  30
0
  0
VERTEX
  5
de
  8
Layer_0
  10
772
  20
350.01819
  0
VERTEX
  5
df
  8
Layer_0
  10
772
  20
326.00208
  0
SEQEND
  0
POLYLINE
  5
e1
  8
Layer_0
  62
7
  66
1
  10
0
  20
0
  30
0
  0
VERTEX
  5
e1
  8
Layer_0
  10
762
  20
326.00208
  0
VERTEX
  5
e2
  8
Layer_0
  10
762
  20
350.01819
  0
SEQEND
  0
POLYLINE
  5
e4
  8
Layer_0
  62
7
  66
1
  10
0
  20
0
  30
0
  0
VERTEX
  5
e4
  8
Layer_0
  10
767
  20
353.02027
  0
VERTEX
  5
e5
  8
Layer_0
  10
767.51122
  20
353.00477
  0
VERTEX
  5
e6
  8
Layer_0
  10
768.00767
  20
352.95928
  0
VERTEX
  5
e7
  8
Layer_0
  10
768.48685
  20
352.8853
  0
VERTEX
  5
e8
  8
Layer_0
  10
768.94623
  20
352.78436
  0
VERTEX
  5
e9
  8
Layer_0
  10
769.3833
  20
352.65794
  0
VERTEX
  5
ea
  8
Layer_0
  10
769.79555
  20
352.50757
  0
VERTEX
  5
eb
  8
Layer_0
  10
770.18046
  20
352.33475
  0
VERTEX
  5
ec
  8
Layer_0
  10
770.53553
  20
352.141
  0
VERTEX
  5
ed
  8
Layer_0
  10
770.85824
  20
351.92781
  0
VERTEX
  5
ee
  8
Layer_0
  10
771.14608
  20
351.69671
  0
VERTEX
  5
ef
  8
Layer_0
  10
771.39653
  20
351.44919
  0
VERTEX
  5
f0
  8
Layer_0
  10
771.60708
  20
351.18677
  0
VERTEX
  5
f1
  8
Layer_0
  10
771.77521
  20
350.91096
  0
VERTEX
  5
f2
  8
Layer_0
  10
771.89842
  20
350.62326
  0
VERTEX
  5
f3
  8
Layer_0
  10
771.97419
  20
350.32519
  0
VERTEX
  5
f4
  8
Layer_0
  10
772
  20
350.01825
  0
SEQEND
  0
POLYLINE
  5
f6
  8
Layer_0
  62
7
  66
1
  10
0
  20
0
  30
0
  0
VERTEX
  5
f6
  8
Layer_0
  10
762
  20
350.01825
  0
VERTEX
  5
f7
  8
Layer_0
  10
762.02581
  20
350.32519
  0
VERTEX
  5
f8
  8
Layer_0
  10
762.10158
  20
350.62326
  0
VERTEX
  5
f9
  8
Layer_0
  10
762.22479
  20
350.91096
  0
VERTEX
  5
fa
  8
Layer_0
  10
762.39292
  20
351.18677
  0
VERTEX
  5
fb
  8
Layer_0
  10
762.60347
  20
351.44919
  0
VERTEX
  5
fc
  8
Layer_0
  10
762.85392
  20
351.69671
  0
VERTEX
  5
fd
  8
Layer_0
  10
763.14176
  20
351.92781
  0
VERTEX
  5
fe
  8
Layer_0
  10
763.46447
  20
352.141
  0
VERTEX
  5
ff
  8
Layer_0
  10
763.81954
  20
352.33475
  0
VERTEX
  5
100
  8
Layer_0
  10
764.20445
  20
352.50757
  0
VERTEX
  5
101
  8
Layer_0
  10
764.6167
  20
352.65794
  0
VERTEX
  5
102
  8
Layer_0
  10
765.05377
  20
352.78436
  0
VERTEX
  5
103
  8
Layer_0
  10
765.51315
  20
352.8853
  0
VERTEX
  5
104
  8
Layer_0
  10
765.99233
  20
352.95928
  0
VERTEX
  5
105
  8
Layer_0
  10
766.48878
  20
353.00477
  0
VERTEX
  5
106
  8
Layer_0
  10
767
  20
353.02027
  0
SEQEND
  0
POLYLINE
  5
108
  8
Layer_0
  62
7
  66
1
  10
0
  20
0
  30
0
  0
VERTEX
  5
108
  8
Layer_0
  10
772
  20
326.00208
  0
VERTEX
  5
109
  8
Layer_0
  10
771.97419
  20
325.69514
  0
VERTEX
  5
10a
  8
Layer_0
  10
771.89842
  20
325.39706
  0
VERTEX
  5
10b
  8
Layer_0
  10
771.77521
  20
325.10937
  0
VERTEX
  5
10c
  8
Layer_0
  10
771.60708
  20
324.83355
  0
VERTEX
  5
10d
  8
Layer_0
  10
771.39653
  20
324.57113
  0
VERTEX
  5
10e
  8
Layer_0
  10
771.14608
  20
324.32362
  0
VERTEX
  5
10f
  8
Layer_0
  10
770.85824
  20
324.09251
  0
VERTEX
  5
110
  8
Layer_0
  10
770.53553
  20
323.87933
  0
VERTEX
  5
111
  8
Layer_0
  10
770.18046
  20
323.68557
  0
VERTEX
  5
112
  8
Layer_0
  10
769.79555
  20
323.51275
  0
VERTEX
  5
113
  8
Layer_0
  10
769.3833
  20
323.36238
  0
VERTEX
  5
114
  8
Layer_0
  10
768.94623
  20
323.23597
  0
VERTEX
  5
115
  8
Layer_0
  10
768.48685
  20
323.13502
  0
VERTEX
  5
116
  8
Layer_0
  10
768.00767
  20
323.06105
  0
VERTEX
  5
117
  8
Layer_0
  10
767.51122
  20
323.01555
  0
VERTEX
  5
118
  8
Layer_0
  10
767
  20
323.00006
  0
SEQEND
  0
POLYLINE
  5
11a
  8
Layer_0
  62
7
  66
1
  10
0
  20
0
  30
0
  0
VERTEX
  5
11a
  8
Layer_0
  10
767
  20
323.00006
  0
VERTEX
  5
11b
  8
Layer_0
  10
766.48878
  20
323.01555
  0
VERTEX
  5
11c
  8
Layer_0
  10
765.99233
  20
323.06105
  0
VERTEX
  5
11d
  8
Layer_0
  10
765.51315
  20
323.13502
  0
VERTEX
  5
11e
  8
Layer_0
  10
765.05377
  20
323.23597
  0
VERTEX
  5
11f
  8
Layer_0
  10
764.6167
  20
323.36238
  0
VERTEX
  5
120
  8
Layer_0
  10
764.20445
  20
323.51275
  0
VERTEX
  5
121
  8
Layer_0
  10
763.81954
  20
323.68557
  0
VERTEX
  5
122
  8
Layer_0
  10
763.46447
  20
323.87933
  0
VERTEX
  5
123
  8
Layer_0
  10
763.14176
  20
324.09251
  0
VERTEX
  5
124
  8
Layer_0
  10
762.85392
  20
324.32362
  0
VERTEX
  5
125
  8
Layer_0
  10
762.60347
  20
324.57113
  0
VERTEX
  5
126
  8
Layer_0
  10
762.39292
  20
324.83355
  0
VERTEX
  5
127
  8
Layer_0
  10
762.22479
  20
325.10937
  0
VERTEX
  5
128
  8
Layer_0
  10
762.10158
  20
325.39706
  0
VERTEX
  5
129
  8
Layer_0
  10
762.02581
  20
325.69514
  0
VERTEX
  5
12a
  8
Layer_0
  10
762
  20
326.00208
  0
SEQEND
  0
POLYLINE
  5
12c
  8
Layer_0
  62
7
  66
1
  10
0
  20
0
  30
0
  0
VERTEX
  5
12c
  8
Layer_0
  10
762
  20
245.98163
  0
VERTEX
  5
12d
  8
Layer_0
  10
762
  20
269.99786
  0
SEQEND
  0
POLYLINE
  5
12f
  8
Layer_0
  62
7
  66
1
  10
0
  20
0
  30
0
  0
VERTEX
  5
12f
  8
Layer_0
  10
772
  20
269.99786
  0
VERTEX
  5
130
  8
Layer_0
  10
772
  20
245.98163
  0
SEQEND
  0
POLYLINE
  5
132
  8
Layer_0
  62
7
  66
1
  10
0
  20
0
  30
0
  0
VERTEX
  5
132
  8
Layer_0
  10
767
  20
242.9796
  0
VERTEX
  5
133
  8
Layer_0
  10
766.48878
  20
242.9951
  0
VERTEX
  5
134
  8
Layer_0
  10
765.99233
  20
243.04059
  0
VERTEX
  5
135
  8
Layer_0
  10
765.51315
  20
243.11457
  0
VERTEX
  5
136
  8
Layer_0
  10
765.05377
  20
243.21552
  0
VERTEX
  5
137
  8
Layer_0
  10
764.6167
  20
243.34193
  0
VERTEX
  5
138
  8
Layer_0
  10
764.20445
  20
243.4923
  0
VERTEX
  5
139
  8
Layer_0
  10
763.81954
  20
243.66512
  0
VERTEX
  5
13a
  8
Layer_0
  10
763.46447
  20
243.85888
  0
VERTEX
  5
13b
  8
Layer_0
  10
763.14176
  20
244.07206
  0
VERTEX
  5
13c
  8
Layer_0
  10
762.85392
  20
244.30317
  0
VERTEX
  5
13d
  8
Layer_0
  10
762.60347
  20
244.55068
  0
VERTEX
  5
13e
  8
Layer_0
  10
762.39292
  20
244.8131
  0
VERTEX
  5
13f
  8
Layer_0
  10
762.22479
  20
245.08892
  0
VERTEX
  5
140
  8
Layer_0
  10
762.10158
  20
245.37662
  0
VERTEX
  5
141
  8
Layer_0
  10
762.02581
  20
245.67469
  0
VERTEX
  5
142
  8
Layer_0
  10
762
  20
245.98163
  0
SEQEND
  0
POLYLINE
  5
144
  8
Layer_0
  62
7
  66
1
  10
0
  20
0
  30
0
  0
VERTEX
  5
144
  8
Layer_0
  10
772
  20
245.98163
  0
VERTEX
  5
145
  8
Layer_0
  10
771.97419
  20
245.67469
  0
VERTEX
  5
146
  8
Layer_0
  10
771.89842
  20
245.37662
  0
VERTEX
  5
147
  8
Layer_0
  10
771.77521
  20
245.08892
  0
VERTEX
  5
148
  8
Layer_0
  10
771.60708
  20
244.8131
  0
VERTEX
  5
149
  8
Layer_0
  10
771.39653
  20
244.55068
  0
VERTEX
  5
14a
  8
Layer_0
  10
771.14608
  20
244.30317
  0
VERTEX
  5
14b
  8
Layer_0
  10
770.85824
  20
244.07206
  0
VERTEX
  5
14c
  8
Layer_0
  10
770.53553
  20
243.85888
  0
VERTEX
  5
14d
  8
Layer_0
  10
770.18046
  20
243.66512
  0
VERTEX
  5
14e
  8
Layer_0
  10
769.79555
  20
243.4923
  0
VERTEX
  5
14f
  8
Layer_0
  10
769.3833
  20
243.34193
  0
VERTEX
  5
150
  8
Layer_0
  10
768.94623
  20
243.21552
  0
VERTEX
  5
151
  8
Layer_0
  10
768.48685
  20
243.11457
  0
VERTEX
  5
152
  8
Layer_0
  10
768.00767
  20
243.04059
  0
VERTEX
  5
153
  8
Layer_0
  10
767.51122
  20
242.9951
  0
VERTEX
  5
154
  8
Layer_0
  10
767
  20
242.9796
  0
SEQEND
  0
POLYLINE
  5
156
  8
Layer_0
  62
7
  66
1
  10
0
  20
0
  30
0
  0
VERTEX
  5
156
  8
Layer_0
  10
762
  20
269.9978
  0
VERTEX
  5
157
  8
Layer_0
  10
762.02581
  20
270.30474
  0
VERTEX
  5
158
  8
Layer_0
  10
762.10158
  20
270.60282
  0
VERTEX
  5
159
  8
Layer_0
  10
762.22479
  20
270.89051
  0
VERTEX
  5
15a
  8
Layer_0
  10
762.39292
  20
271.16633
  0
VERTEX
  5
15b
  8
Layer_0
  10
762.60347
  20
271.42875
  0
VERTEX
  5
15c
  8
Layer_0
  10
762.85392
  20
271.67626
  0
VERTEX
  5
15d
  8
Layer_0
  10
763.14176
  20
271.90737
  0
VERTEX
  5
15e
  8
Layer_0
  10
763.46447
  20
272.12056
  0
VERTEX
  5
15f
  8
Layer_0
  10
763.81954
  20
272.31431
  0
VERTEX
  5
160
  8
Layer_0
  10
764.20445
  20
272.48713
  0
VERTEX
  5
161
  8
Layer_0
  10
764.6167
  20
272.6375
  0
VERTEX
  5
162
  8
Layer_0
  10
765.05377
  20
272.76392
  0
VERTEX
  5
163
  8
Layer_0
  10
765.51315
  20
272.86486
  0
VERTEX
  5
164
  8
Layer_0
  10
765.99233
  20
272.93884
  0
VERTEX
  5
165
  8
Layer_0
  10
766.48878
  20
272.98433
  0
VERTEX
  5
166
  8
Layer_0
  10
767
  20
272.99983
  0
SEQEND
  0
POLYLINE
  5
168
  8
Layer_0
  62
7
  66
1
  10
0
  20
0
  30
0
  0
VERTEX
  5
168
  8
Layer_0
  10
767
  20
272.99983
  0
VERTEX
  5
169
  8
Layer_0
  10
767.51122
  20
272.98433
  0
VERTEX
  5
16a
  8
Layer_0
  10
768.00767
  20
272.93884
  0
VERTEX
  5
16b
  8
Layer_0
  10
768.48685
  20
272.86486
  0
VERTEX
  5
16c
  8
Layer_0
  10
768.94623
  20
272.76391
  0
VERTEX
  5
16d
  8
Layer_0
  10
769.3833
  20
272.6375
  0
VERTEX
  5
16e
  8
Layer_0
  10
769.79555
  20
272.48713
  0
VERTEX
  5
16f
  8
Layer_0
  10
770.18046
  20
272.31431
  0
VERTEX
  5
170
  8
Layer_0
  10
770.53553
  20
272.12056
  0
VERTEX
  5
171
  8
Layer_0
  10
770.85824
  20
271.90737
  0
VERTEX
  5
172
  8
Layer_0
  10
771.14608
  20
271.67626
  0
VERTEX
  5
173
  8
Layer_0
  10
771.39653
  20
271.42875
  0
VERTEX
  5
174
  8
Layer_0
  10
771.60708
  20
271.16633
  0
VERTEX
  5
175
  8
Layer_0
  10
771.77521
  20
270.89051
  0
VERTEX
  5
176
  8
Layer_0
  10
771.89842
  20
270.60282
  0
VERTEX
  5
177
  8
Layer_0
  10
771.97419
  20
270.30474
  0
VERTEX
  5
178
  8
Layer_0
  10
772
  20
269.9978
  0
SEQEND
  0
POLYLINE
  5
17a
  8
Layer_0
  62
7
  66
1
  10
0
  20
0
  30
0
  0
VERTEX
  5
17a
  8
Layer_0
  10
714.98175
  20
303.00006
  0
VERTEX
  5
17b
  8
Layer_0
  10
738.99799
  20
303.00006
  0
SEQEND
  0
POLYLINE
  5
17d
  8
Layer_0
  62
7
  66
1
  10
0
  20
0
  30
0
  0
VERTEX
  5
17d
  8
Layer_0
  10
738.99799
  20
293.00006
  0
VERTEX
  5
17e
  8
Layer_0
  10
714.98175
  20
293.00006
  0
SEQEND
  0
POLYLINE
  5
180
  8
Layer_0
  62
7
  66
1
  10
0
  20
0
  30
0
  0
VERTEX
  5
180
  8
Layer_0
  10
711.97979
  20
298.00006
  0
VERTEX
  5
181
  8
Layer_0
  10
711.99528
  20
298.51128
  0
VERTEX
  5
182
  8
Layer_0
  10
712.04078
  20
299.00774
  0
VERTEX
  5
183
  8
Layer_0
  10
712.11475
  20
299.48691
  0
VERTEX
  5
184
  8
Layer_0
  10
712.2157
  20
299.94629
  0
VERTEX
  5
185
  8
Layer_0
  10
712.34211
  20
300.38336
  0
VERTEX
  5
186
  8
Layer_0
  10
712.49248
  20
300.79561
  0
VERTEX
  5
187
  8
Layer_0
  10
712.6653
  20
301.18053
  0
VERTEX
  5
188
  8
Layer_0
  10
712.85906
  20
301.5356
  0
VERTEX
  5
189
  8
Layer_0
  10
713.07224
  20
301.8583
  0
VERTEX
  5
18a
  8
Layer_0
  10
713.30335
  20
302.14614
  0
VERTEX
  5
18b
  8
Layer_0
  10
713.55087
  20
302.39659
  0
VERTEX
  5
18c
  8
Layer_0
  10
713.81329
  20
302.60714
  0
VERTEX
  5
18d
  8
Layer_0
  10
714.0891
  20
302.77527
  0
VERTEX
  5
18e
  8
Layer_0
  10
714.3768
  20
302.89848
  0
VERTEX
  5
18f
  8
Layer_0
  10
714.67487
  20
302.97425
  0
VERTEX
  5
190
  8
Layer_0
  10
714.98181
  20
303.00006
  0
SEQEND
  0
POLYLINE
  5
192
  8
Layer_0
  62
7
  66
1
  10
0
  20
0
  30
0
  0
VERTEX
  5
192
  8
Layer_0
  10
714.98181
  20
293.00006
  0
VERTEX
  5
193
  8
Layer_0
  10
714.67487
  20
293.02588
  0
VERTEX
  5
194
  8
Layer_0
  10
714.3768
  20
293.10164
  0
VERTEX
  5
195
  8
Layer_0
  10
714.0891
  20
293.22485
  0
VERTEX
  5
196
  8
Layer_0
  10
713.81329
  20
293.39299
  0
VERTEX
  5
197
  8
Layer_0
  10
713.55087
  20
293.60353
  0
VERTEX
  5
198
  8
Layer_0
  10
713.30335
  20
293.85398
  0
VERTEX
  5
199
  8
Layer_0
  10
713.07224
  20
294.14182
  0
VERTEX
  5
19a
  8
Layer_0
  10
712.85906
  20
294.46453
  0
VERTEX
  5
19b
  8
Layer_0
  10
712.6653
  20
294.8196
  0
VERTEX
  5
19c
  8
Layer_0
  10
712.49248
  20
295.20451
  0
VERTEX
  5
19d
  8
Layer_0
  10
712.34211
  20
295.61676
  0
VERTEX
  5
19e
  8
Layer_0
  10
712.2157
  20
296.05384
  0
VERTEX
  5
19f
  8
Layer_0
  10
712.11475
  20
296.51321
  0
VERTEX
  5
1a0
  8
Layer_0
  10
712.04078
  20
296.99239
  0
VERTEX
  5
1a1
  8
Layer_0
  10
711.99528
  20
297.48884
  0
VERTEX
  5
1a2
  8
Layer_0
  10
711.97979
  20
298.00006
  0
SEQEND
  0
POLYLINE
  5
1a4
  8
Layer_0
  62
7
  66
1
  10
0
  20
0
  30
0
  0
VERTEX
  5
1a4
  8
Layer_0
  10
738.99799
  20
303.00006
  0
VERTEX
  5
1a5
  8
Layer_0
  10
739.30493
  20
302.97425
  0
VERTEX
  5
1a6
  8
Layer_0
  10
739.603
  20
302.89848
  0
VERTEX
  5
1a7
  8
Layer_0
  10
739.8907
  20
302.77527
  0
VERTEX
  5
1a8
  8
Layer_0
  10
740.16651
  20
302.60714
  0
VERTEX
  5
1a9
  8
Layer_0
  10
740.42893
  20
302.39659
  0
VERTEX
  5
1aa
  8
Layer_0
  10
740.67645
  20
302.14614
  0
VERTEX
  5
1ab
  8
Layer_0
  10
740.90755
  20
301.8583
  0
VERTEX
  5
1ac
  8
Layer_0
  10
741.12074
  20
301.53559
  0
VERTEX
  5
1ad
  8
Layer_0
  10
741.3145
  20
301.18052
  0
VERTEX
  5
1ae
  8
Layer_0
  10
741.48731
  20
300.79561
  0
VERTEX
  5
1af
  8
Layer_0
  10
741.63768
  20
300.38336
  0
VERTEX
  5
1b0
  8
Layer_0
  10
741.7641
  20
299.94629
  0
VERTEX
  5
1b1
  8
Layer_0
  10
741.86505
  20
299.48691
  0
VERTEX
  5
1b2
  8
Layer_0
  10
741.93902
  20
299.00773
  0
VERTEX
  5
1b3
  8
Layer_0
  10
741.98451
  20
298.51128
  0
VERTEX
  5
1b4
  8
Layer_0
  10
742.00001
  20
298.00006
  0
SEQEND
  0
POLYLINE
  5
1b6
  8
Layer_0
  62
7
  66
1
  10
0
  20
0
  30
0
  0
VERTEX
  5
1b6
  8
Layer_0
  10
742.00001
  20
298.00006
  0
VERTEX
  5
1b7
  8
Layer_0
  10
741.98451
  20
297.48884
  0
VERTEX
  5
1b8
  8
Layer_0
  10
741.93902
  20
296.99239
  0
VERTEX
  5
1b9
  8
Layer_0
  10
741.86505
  20
296.51321
  0
VERTEX
  5
1ba
  8
Layer_0
  10
741.7641
  20
296.05384
  0
VERTEX
  5
1bb
  8
Layer_0
  10
741.63768
  20
295.61676
  0
VERTEX
  5
1bc
  8
Layer_0
  10
741.48731
  20
295.20451
  0
VERTEX
  5
1bd
  8
Layer_0
  10
741.3145
  20
294.8196
  0
VERTEX
  5
1be
  8
Layer_0
  10
741.12074
  20
294.46453
  0
VERTEX
  5
1bf
  8
Layer_0
  10
740.90755
  20
294.14182
  0
VERTEX
  5
1c0
  8
Layer_0
  10
740.67645
  20
293.85398
  0
VERTEX
  5
1c1
  8
Layer_0
  10
740.42893
  20
293.60353
  0
VERTEX
  5
1c2
  8
Layer_0
  10
740.16651
  20
293.39299
  0
VERTEX
  5
1c3
  8
Layer_0
  10
739.8907
  20
293.22485
  0
VERTEX
  5
1c4
  8
Layer_0
  10
739.603
  20
293.10164
  0
VERTEX
  5
1c5
  8
Layer_0
  10
739.30493
  20
293.02588
  0
VERTEX
  5
1c6
  8
Layer_0
  10
738.99799
  20
293.00006
  0
SEQEND
  0
CIRCLE
  5
1c8
  8
Layer_0
  62
7
  10
812.96191
  20
252.03809
  30
0
  40
17.5
  0
CIRCLE
  5
1c8
  8
Layer_0
  62
7
  10
721.03809
  20
343.96198
  30
0
  40
17.5
  0
CIRCLE
  5
1c8
  8
Layer_0
  62
7
  10
721.03815
  20
252.03815
  30
0
  40
17.499998
  0
CIRCLE
  5
1c8
  8
Layer_0
  62
7
  10
812.96204
  20
343.96204
  30
0
  40
17.499998
  0
CIRCLE
  5
1c8
  8
Layer_0
  62
7
  10
767
  20
397.75037
  30
0
  40
3.1500065
  0
CIRCLE
  5
1c8
  8
Layer_0
  62
7
  10
767
  20
198.24963
  30
0
  40
3.1500065
  0
CIRCLE
  5
1c8
  8
Layer_0
  62
7
  10
784.32147
  20
396.23486
  30
0
  40
3.1500063
  0
CIRCLE
  5
1c8
  8
Layer_0
  62
7
  10
749.67853
  20
199.76508
  30
0
  40
3.1500063
  0
CIRCLE
  5
1c8
  8
Layer_0
  62
7
  10
801.11664
  20
391.73468
  30
0
  40
3.1500063
  0
CIRCLE
  5
1c8
  8
Layer_0
  62
7
  10
732.88336
  20
204.26526
  30
0
  40
3.1500063
  0
CIRCLE
  5
1c8
  8
Layer_0
  62
7
  10
816.87512
  20
384.38635
  30
0
  40
3.1500065
  0
CIRCLE
  5
1c8
  8
Layer_0
  62
7
  10
717.12476
  20
211.61365
  30
0
  40
3.1500065
  0
CIRCLE
  5
1c8
  8
Layer_0
  62
7
  10
831.11829
  20
374.41321
  30
0
  40
3.1500063
  0
CIRCLE
  5
1c8
  8
Layer_0
  62
7
  10
702.88171
  20
221.58679
  30
0
  40
3.1500063
  0
CIRCLE
  5
1c8
  8
Layer_0
  62
7
  10
843.41321
  20
362.11829
  30
0
  40
3.1500065
  0
CIRCLE
  5
1c8
  8
Layer_0
  62
7
  10
690.58679
  20
233.88171
  30
0
  40
3.1500065
  0
CIRCLE
  5
1c8
  8
Layer_0
  62
7
  10
853.38635
  20
347.87518
  30
0
  40
3.1500065
  0
CIRCLE
  5
1c8
  8
Layer_0
  62
7
  10
680.61365
  20
248.12482
  30
0
  40
3.1500065
  0
CIRCLE
  5
1c8
  8
Layer_0
  62
7
  10
860.73474
  20
332.11664
  30
0
  40
3.1500065
  0
CIRCLE
  5
1c8
  8
Layer_0
  62
7
  10
673.26532
  20
263.88336
  30
0
  40
3.1500065
  0
CIRCLE
  5
1c8
  8
Layer_0
  62
7
  10
865.23499
  20
315.32147
  30
0
  40
3.1500063
  0
CIRCLE
  5
1c8
  8
Layer_0
  62
7
  10
668.76514
  20
280.67853
  30
0
  40
3.1500063
  0
CIRCLE
  5
1c8
  8
Layer_0
  62
7
  10
866.75037
  20
298
  30
0
  40
3.1500065
  0
CIRCLE
  5
1c8
  8
Layer_0
  62
7
  10
667.24963
  20
298
  30
0
  40
3.1500065
  0
CIRCLE
  5
1c8
  8
Layer_0
  62
7
  10
865.23486
  20
280.67847
  30
0
  40
3.1500063
  0
CIRCLE
  5
1c8
  8
Layer_0
  62
7
  10
668.76514
  20
315.32141
  30
0
  40
3.1500063
  0
CIRCLE
  5
1c8
  8
Layer_0
  62
7
  10
860.73474
  20
263.88342
  30
0
  40
3.1500063
  0
CIRCLE
  5
1c8
  8
Layer_0
  62
7
  10
673.26526
  20
332.1167
  30
0
  40
3.1500063
  0
CIRCLE
  5
1c8
  8
Layer_0
  62
7
  10
853.38641
  20
248.12482
  30
0
  40
3.1500065
  0
CIRCLE
  5
1c8
  8
Layer_0
  62
7
  10
680.61365
  20
347.87518
  30
0
  40
3.1500065
  0
CIRCLE
  5
1c8
  8
Layer_0
  62
7
  10
843.41321
  20
233.88171
  30
0
  40
3.1500065
  0
CIRCLE
  5
1c8
  8
Layer_0
  62
7
  10
690.58679
  20
362.11829
  30
0
  40
3.1500065
  0
CIRCLE
  5
1c8
  8
Layer_0
  62
7
  10
831.11835
  20
221.58679
  30
0
  40
3.1500065
  0
CIRCLE
  5
1c8
  8
Layer_0
  62
7
  10
702.88171
  20
374.41321
  30
0
  40
3.1500065
  0
CIRCLE
  5
1c8
  8
Layer_0
  62
7
  10
816.87518
  20
211.61353
  30
0
  40
3.1500065
  0
CIRCLE
  5
1c8
  8
Layer_0
  62
7
  10
717.12482
  20
384.38629
  30
0
  40
3.1500065
  0
CIRCLE
  5
1c8
  8
Layer_0
  62
7
  10
801.11664
  20
204.26538
  30
0
  40
3.1500065
  0
CIRCLE
  5
1c8
  8
Layer_0
  62
7
  10
732.88336
  20
391.73474
  30
0
  40
3.1500065
  0
CIRCLE
  5
1c8
  8
Layer_0
  62
7
  10
784.32147
  20
199.76508
  30
0
  40
3.1500065
  0
CIRCLE
  5
1c8
  8
Layer_0
  62
7
  10
749.67853
  20
396.23492
  30
0
  40
3.1500065
  0
ENDSEC
  0
EOF
