<?xml version="1.0" encoding="UTF-8" standalone="no"?>
<svg xmlns="http://www.w3.org/2000/svg" xmlns:xlink="http://www.w3.org/1999/xlink" width="225.000mm" height="225.000mm" viewBox="654.500000 489.500000 225.000000 225.000000">
    <circle transform="matrix(1,0,0,-1,767,602)" style="stroke:#000000;stroke-width:0.050000mm;fill:none" r="112.500008" cx="0" cy="0"/>
    <circle transform="matrix(1,0,0,-1,767,602)" style="stroke:#000000;stroke-width:0.050000mm;fill:none" r="17.5" cx="0" cy="0"/>
    <path transform="matrix(0.600405,0,0,-1,807.010132,602)" style="stroke:#000000;stroke-width:0.083277mm;fill:none" d="M20,-5L-20,-5"/>
    <path transform="matrix(0.600405,0,0,-1,807.010132,602)" style="stroke:#000000;stroke-width:0.083277mm;fill:none" d="M-20,5L20,5"/>
    <path transform="matrix(0.600405,0,0,-1,819.01825,602)" style="stroke:#000000;stroke-width:0.083277mm;fill:none" d="M5,0C5,-2.761424,2.761424,-5,0,-5"/>
    <path transform="matrix(0.600405,0,0,-1,819.01825,602)" style="stroke:#000000;stroke-width:0.083277mm;fill:none" d="M0,5C2.761424,5,5,2.761424,5,0"/>
    <path transform="matrix(0.600405,0,0,-1,795.002014,602)" style="stroke:#000000;stroke-width:0.083277mm;fill:none" d="M0,-5C-2.761424,-5,-5,-2.761424,-5,0"/>
    <path transform="matrix(0.600405,0,0,-1,795.002014,602)" style="stroke:#000000;stroke-width:0.083277mm;fill:none" d="M-5,0C-5,2.761424,-2.761424,5,0,5"/>
    <path transform="matrix(0,-0.600404,-1,-0,767,561.989868)" style="stroke:#000000;stroke-width:0.083277mm;fill:none" d="M20,-5L-20,-5"/>
    <path transform="matrix(0,-0.600404,-1,-0,767,561.989868)" style="stroke:#000000;stroke-width:0.083277mm;fill:none" d="M-20,5L20,5"/>
    <path transform="matrix(0,-0.600404,-1,-0,767,549.98175)" style="stroke:#000000;stroke-width:0.083277mm;fill:none" d="M5,0C5,-2.761424,2.761424,-5,0,-5"/>
    <path transform="matrix(0,-0.600404,-1,-0,767,549.98175)" style="stroke:#000000;stroke-width:0.083277mm;fill:none" d="M0,5C2.761424,5,5,2.761424,5,0"/>
    <path transform="matrix(0,-0.600404,-1,-0,767,573.997925)" style="stroke:#000000;stroke-width:0.083277mm;fill:none" d="M0,-5C-2.761424,-5,-5,-2.761424,-5,0"/>
    <path transform="matrix(0,-0.600404,-1,-0,767,573.997925)" style="stroke:#000000;stroke-width:0.083277mm;fill:none" d="M-5,0C-5,2.761424,-2.761424,5,0,5"/>
    <path transform="matrix(-0,0.600405,1,0,767,642.010254)" style="stroke:#000000;stroke-width:0.083277mm;fill:none" d="M20,-5L-20,-5"/>
    <path transform="matrix(-0,0.600405,1,0,767,642.010254)" style="stroke:#000000;stroke-width:0.083277mm;fill:none" d="M-20,5L20,5"/>
    <path transform="matrix(-0,0.600405,1,0,767,654.018372)" style="stroke:#000000;stroke-width:0.083277mm;fill:none" d="M5,0C5,-2.761424,2.761424,-5,0,-5"/>
    <path transform="matrix(-0,0.600405,1,0,767,654.018372)" style="stroke:#000000;stroke-width:0.083277mm;fill:none" d="M0,5C2.761424,5,5,2.761424,5,0"/>
    <path transform="matrix(-0,0.600405,1,0,767,630.002197)" style="stroke:#000000;stroke-width:0.083277mm;fill:none" d="M0,-5C-2.761424,-5,-5,-2.761424,-5,0"/>
    <path transform="matrix(-0,0.600405,1,0,767,630.002197)" style="stroke:#000000;stroke-width:0.083277mm;fill:none" d="M-5,0C-5,2.761424,-2.761424,5,0,5"/>
    <path transform="matrix(-0.600405,-0,-0,1,726.989868,601.999939)" style="stroke:#000000;stroke-width:0.083277mm;fill:none" d="M20,-5L-20,-5"/>
    <path transform="matrix(-0.600405,-0,-0,1,726.989868,601.999939)" style="stroke:#000000;stroke-width:0.083277mm;fill:none" d="M-20,5L20,5"/>
    <path transform="matrix(-0.600405,-0,-0,1,714.981812,601.999939)" style="stroke:#000000;stroke-width:0.083277mm;fill:none" d="M5,0C5,-2.761424,2.761424,-5,0,-5"/>
    <path transform="matrix(-0.600405,-0,-0,1,714.981812,601.999939)" style="stroke:#000000;stroke-width:0.083277mm;fill:none" d="M0,5C2.761424,5,5,2.761424,5,0"/>
    <path transform="matrix(-0.600405,-0,-0,1,738.997986,601.999939)" style="stroke:#000000;stroke-width:0.083277mm;fill:none" d="M0,-5C-2.761424,-5,-5,-2.761424,-5,0"/>
    <path transform="matrix(-0.600405,-0,-0,1,738.997986,601.999939)" style="stroke:#000000;stroke-width:0.083277mm;fill:none" d="M-5,0C-5,2.761424,-2.761424,5,0,5"/>
    <circle transform="matrix(-0.707107,-0.707107,-0.707107,0.707107,812.961914,647.961914)" style="stroke:#000000;stroke-width:0.050000mm;fill:none" r="17.5" cx="0" cy="0"/>
    <circle transform="matrix(-0.707107,-0.707107,-0.707107,0.707107,721.038086,556.038025)" style="stroke:#000000;stroke-width:0.050000mm;fill:none" r="17.5" cx="0" cy="0"/>
    <circle transform="matrix(0.707107,-0.707107,-0.707107,-0.707107,721.038147,647.961853)" style="stroke:#000000;stroke-width:0.050000mm;fill:none" r="17.5" cx="0" cy="0"/>
    <circle transform="matrix(0.707107,-0.707107,-0.707107,-0.707107,812.962036,556.037964)" style="stroke:#000000;stroke-width:0.050000mm;fill:none" r="17.5" cx="0" cy="0"/>
    <circle transform="matrix(1,0,0,-1,767,502.249634)" style="stroke:#000000;stroke-width:0.050000mm;fill:none" r="3.150007" cx="0" cy="0"/>
    <circle transform="matrix(1,0,0,-1,767,701.750366)" style="stroke:#000000;stroke-width:0.050000mm;fill:none" r="3.150007" cx="0" cy="0"/>
    <circle transform="matrix(0.984808,0.173648,0.173648,-0.984808,784.321472,503.765137)" style="stroke:#000000;stroke-width:0.050000mm;fill:none" r="3.150007" cx="0" cy="0"/>
    <circle transform="matrix(0.984808,0.173648,0.173648,-0.984808,749.678528,700.234924)" style="stroke:#000000;stroke-width:0.050000mm;fill:none" r="3.150007" cx="0" cy="0"/>
    <circle transform="matrix(0.939693,0.34202,0.34202,-0.939693,801.116638,508.26532)" style="stroke:#000000;stroke-width:0.050000mm;fill:none" r="3.150007" cx="0" cy="0"/>
    <circle transform="matrix(0.939693,0.34202,0.34202,-0.939693,732.883362,695.734741)" style="stroke:#000000;stroke-width:0.050000mm;fill:none" r="3.150007" cx="0" cy="0"/>
    <circle transform="matrix(0.866025,0.5,0.5,-0.866025,816.875122,515.613647)" style="stroke:#000000;stroke-width:0.050000mm;fill:none" r="3.150007" cx="0" cy="0"/>
    <circle transform="matrix(0.866025,0.5,0.5,-0.866025,717.124756,688.386353)" style="stroke:#000000;stroke-width:0.050000mm;fill:none" r="3.150007" cx="0" cy="0"/>
    <circle transform="matrix(0.766044,0.642788,0.642788,-0.766044,831.118286,525.586792)" style="stroke:#000000;stroke-width:0.050000mm;fill:none" r="3.150007" cx="0" cy="0"/>
    <circle transform="matrix(0.766044,0.642788,0.642788,-0.766044,702.881714,678.413208)" style="stroke:#000000;stroke-width:0.050000mm;fill:none" r="3.150007" cx="0" cy="0"/>
    <circle transform="matrix(0.642788,0.766044,0.766044,-0.642788,843.413208,537.881714)" style="stroke:#000000;stroke-width:0.050000mm;fill:none" r="3.150007" cx="0" cy="0"/>
    <circle transform="matrix(0.642788,0.766044,0.766044,-0.642788,690.586792,666.118286)" style="stroke:#000000;stroke-width:0.050000mm;fill:none" r="3.150007" cx="0" cy="0"/>
    <circle transform="matrix(0.5,0.866025,0.866025,-0.5,853.386353,552.124817)" style="stroke:#000000;stroke-width:0.050000mm;fill:none" r="3.150007" cx="0" cy="0"/>
    <circle transform="matrix(0.5,0.866025,0.866025,-0.5,680.613647,651.875183)" style="stroke:#000000;stroke-width:0.050000mm;fill:none" r="3.150007" cx="0" cy="0"/>
    <circle transform="matrix(0.34202,0.939693,0.939693,-0.34202,860.734741,567.883362)" style="stroke:#000000;stroke-width:0.050000mm;fill:none" r="3.150007" cx="0" cy="0"/>
    <circle transform="matrix(0.34202,0.939693,0.939693,-0.34202,673.26532,636.116638)" style="stroke:#000000;stroke-width:0.050000mm;fill:none" r="3.150007" cx="0" cy="0"/>
    <circle transform="matrix(0.173648,0.984808,0.984808,-0.173648,865.234985,584.678528)" style="stroke:#000000;stroke-width:0.050000mm;fill:none" r="3.150007" cx="0" cy="0"/>
    <circle transform="matrix(0.173648,0.984808,0.984808,-0.173648,668.765137,619.321472)" style="stroke:#000000;stroke-width:0.050000mm;fill:none" r="3.150007" cx="0" cy="0"/>
    <circle transform="matrix(-0,1,1,0,866.750366,602)" style="stroke:#000000;stroke-width:0.050000mm;fill:none" r="3.150007" cx="0" cy="0"/>
    <circle transform="matrix(-0,1,1,0,667.249634,602)" style="stroke:#000000;stroke-width:0.050000mm;fill:none" r="3.150007" cx="0" cy="0"/>
    <circle transform="matrix(-0.173648,0.984808,0.984808,0.173648,865.234863,619.321533)" style="stroke:#000000;stroke-width:0.050000mm;fill:none" r="3.150007" cx="0" cy="0"/>
    <circle transform="matrix(-0.173648,0.984808,0.984808,0.173648,668.765137,584.678589)" style="stroke:#000000;stroke-width:0.050000mm;fill:none" r="3.150007" cx="0" cy="0"/>
    <circle transform="matrix(-0.34202,0.939693,0.939693,0.34202,860.734741,636.116577)" style="stroke:#000000;stroke-width:0.050000mm;fill:none" r="3.150007" cx="0" cy="0"/>
    <circle transform="matrix(-0.34202,0.939693,0.939693,0.34202,673.265259,567.883301)" style="stroke:#000000;stroke-width:0.050000mm;fill:none" r="3.150007" cx="0" cy="0"/>
    <circle transform="matrix(-0.5,0.866025,0.866025,0.5,853.386414,651.875183)" style="stroke:#000000;stroke-width:0.050000mm;fill:none" r="3.150007" cx="0" cy="0"/>
    <circle transform="matrix(-0.5,0.866025,0.866025,0.5,680.613647,552.124817)" style="stroke:#000000;stroke-width:0.050000mm;fill:none" r="3.150007" cx="0" cy="0"/>
    <circle transform="matrix(-0.642788,0.766044,0.766044,0.642788,843.413208,666.118286)" style="stroke:#000000;stroke-width:0.050000mm;fill:none" r="3.150007" cx="0" cy="0"/>
    <circle transform="matrix(-0.642788,0.766044,0.766044,0.642788,690.586792,537.881714)" style="stroke:#000000;stroke-width:0.050000mm;fill:none" r="3.150007" cx="0" cy="0"/>
    <circle transform="matrix(-0.766044,0.642788,0.642788,0.766044,831.118347,678.413208)" style="stroke:#000000;stroke-width:0.050000mm;fill:none" r="3.150007" cx="0" cy="0"/>
    <circle transform="matrix(-0.766044,0.642788,0.642788,0.766044,702.881714,525.586792)" style="stroke:#000000;stroke-width:0.050000mm;fill:none" r="3.150007" cx="0" cy="0"/>
    <circle transform="matrix(-0.866025,0.5,0.5,0.866025,816.875183,688.386475)" style="stroke:#000000;stroke-width:0.050000mm;fill:none" r="3.150007" cx="0" cy="0"/>
    <circle transform="matrix(-0.866025,0.5,0.5,0.866025,717.124817,515.613708)" style="stroke:#000000;stroke-width:0.050000mm;fill:none" r="3.150007" cx="0" cy="0"/>
    <circle transform="matrix(-0.939693,0.34202,0.34202,0.939693,801.116638,695.734619)" style="stroke:#000000;stroke-width:0.050000mm;fill:none" r="3.150007" cx="0" cy="0"/>
    <circle transform="matrix(-0.939693,0.34202,0.34202,0.939693,732.883362,508.265259)" style="stroke:#000000;stroke-width:0.050000mm;fill:none" r="3.150007" cx="0" cy="0"/>
    <circle transform="matrix(-0.984808,0.173648,0.173648,0.984808,784.321472,700.234924)" style="stroke:#000000;stroke-width:0.050000mm;fill:none" r="3.150007" cx="0" cy="0"/>
    <circle transform="matrix(-0.984808,0.173648,0.173648,0.984808,749.678528,503.765076)" style="stroke:#000000;stroke-width:0.050000mm;fill:none" r="3.150007" cx="0" cy="0"/>
</svg>
