  0
SECTION
  2
HEADER
  9
$ACADVER
  1
AC1009
  0
ENDSEC
  0
SECTION
  2
TABLES
  0
TABLE
  2
LAYER
  70
1
  0
LAYER
  2
Layer_0
  70
0
  62
7
  6
CONTINUOUS
  0
ENDTAB
  0
ENDSEC
  0
SECTION
  2
ENTITIES
  0
CIRCLE
  5
90
  8
Layer_0
  62
7
  10
340
  20
310
  30
0
  40
17.5
  0
CIRCLE
  5
90
  8
Layer_0
  62
7
  10
340
  20
310
  30
0
  40
130.00002
  0
POLYLINE
  5
90
  8
Layer_0
  62
7
  66
1
  10
0
  20
0
  30
0
  0
VERTEX
  5
90
  8
Layer_0
  10
392.01825
  20
305
  0
VERTEX
  5
91
  8
Layer_0
  10
368.00201
  20
305
  0
SEQEND
  0
POLYLINE
  5
93
  8
Layer_0
  62
7
  66
1
  10
0
  20
0
  30
0
  0
VERTEX
  5
93
  8
Layer_0
  10
368.00201
  20
315
  0
VERTEX
  5
94
  8
Layer_0
  10
392.01825
  20
315
  0
SEQEND
  0
POLYLINE
  5
96
  8
Layer_0
  62
7
  66
1
  10
0
  20
0
  30
0
  0
VERTEX
  5
96
  8
Layer_0
  10
395.02028
  20
310
  0
VERTEX
  5
97
  8
Layer_0
  10
395.00478
  20
309.48878
  0
VERTEX
  5
98
  8
Layer_0
  10
394.95929
  20
308.99233
  0
VERTEX
  5
99
  8
Layer_0
  10
394.88531
  20
308.51315
  0
VERTEX
  5
9a
  8
Layer_0
  10
394.78436
  20
308.05377
  0
VERTEX
  5
9b
  8
Layer_0
  10
394.65795
  20
307.6167
  0
VERTEX
  5
9c
  8
Layer_0
  10
394.50758
  20
307.20445
  0
VERTEX
  5
9d
  8
Layer_0
  10
394.33476
  20
306.81954
  0
VERTEX
  5
9e
  8
Layer_0
  10
394.141
  20
306.46447
  0
VERTEX
  5
9f
  8
Layer_0
  10
393.92782
  20
306.14176
  0
VERTEX
  5
a0
  8
Layer_0
  10
393.69671
  20
305.85392
  0
VERTEX
  5
a1
  8
Layer_0
  10
393.44919
  20
305.60347
  0
VERTEX
  5
a2
  8
Layer_0
  10
393.18677
  20
305.39292
  0
VERTEX
  5
a3
  8
Layer_0
  10
392.91096
  20
305.22479
  0
VERTEX
  5
a4
  8
Layer_0
  10
392.62326
  20
305.10158
  0
VERTEX
  5
a5
  8
Layer_0
  10
392.32519
  20
305.02581
  0
VERTEX
  5
a6
  8
Layer_0
  10
392.01825
  20
305
  0
SEQEND
  0
POLYLINE
  5
a8
  8
Layer_0
  62
7
  66
1
  10
0
  20
0
  30
0
  0
VERTEX
  5
a8
  8
Layer_0
  10
392.01825
  20
315
  0
VERTEX
  5
a9
  8
Layer_0
  10
392.32519
  20
314.97419
  0
VERTEX
  5
aa
  8
Layer_0
  10
392.62326
  20
314.89842
  0
VERTEX
  5
ab
  8
Layer_0
  10
392.91096
  20
314.77521
  0
VERTEX
  5
ac
  8
Layer_0
  10
393.18677
  20
314.60708
  0
VERTEX
  5
ad
  8
Layer_0
  10
393.44919
  20
314.39653
  0
VERTEX
  5
ae
  8
Layer_0
  10
393.69671
  20
314.14608
  0
VERTEX
  5
af
  8
Layer_0
  10
393.92782
  20
313.85824
  0
VERTEX
  5
b0
  8
Layer_0
  10
394.141
  20
313.53553
  0
VERTEX
  5
b1
  8
Layer_0
  10
394.33476
  20
313.18046
  0
VERTEX
  5
b2
  8
Layer_0
  10
394.50758
  20
312.79555
  0
VERTEX
  5
b3
  8
Layer_0
  10
394.65795
  20
312.3833
  0
VERTEX
  5
b4
  8
Layer_0
  10
394.78436
  20
311.94623
  0
VERTEX
  5
b5
  8
Layer_0
  10
394.88531
  20
311.48685
  0
VERTEX
  5
b6
  8
Layer_0
  10
394.95929
  20
311.00767
  0
VERTEX
  5
b7
  8
Layer_0
  10
395.00478
  20
310.51122
  0
VERTEX
  5
b8
  8
Layer_0
  10
395.02028
  20
310
  0
SEQEND
  0
POLYLINE
  5
ba
  8
Layer_0
  62
7
  66
1
  10
0
  20
0
  30
0
  0
VERTEX
  5
ba
  8
Layer_0
  10
368.00201
  20
305
  0
VERTEX
  5
bb
  8
Layer_0
  10
367.69507
  20
305.02581
  0
VERTEX
  5
bc
  8
Layer_0
  10
367.397
  20
305.10158
  0
VERTEX
  5
bd
  8
Layer_0
  10
367.1093
  20
305.22479
  0
VERTEX
  5
be
  8
Layer_0
  10
366.83349
  20
305.39292
  0
VERTEX
  5
bf
  8
Layer_0
  10
366.57107
  20
305.60347
  0
VERTEX
  5
c0
  8
Layer_0
  10
366.32355
  20
305.85392
  0
VERTEX
  5
c1
  8
Layer_0
  10
366.09245
  20
306.14176
  0
VERTEX
  5
c2
  8
Layer_0
  10
365.87926
  20
306.46447
  0
VERTEX
  5
c3
  8
Layer_0
  10
365.6855
  20
306.81954
  0
VERTEX
  5
c4
  8
Layer_0
  10
365.51269
  20
307.20445
  0
VERTEX
  5
c5
  8
Layer_0
  10
365.36232
  20
307.6167
  0
VERTEX
  5
c6
  8
Layer_0
  10
365.2359
  20
308.05377
  0
VERTEX
  5
c7
  8
Layer_0
  10
365.13495
  20
308.51315
  0
VERTEX
  5
c8
  8
Layer_0
  10
365.06098
  20
308.99233
  0
VERTEX
  5
c9
  8
Layer_0
  10
365.01549
  20
309.48878
  0
VERTEX
  5
ca
  8
Layer_0
  10
364.99999
  20
310
  0
SEQEND
  0
POLYLINE
  5
cc
  8
Layer_0
  62
7
  66
1
  10
0
  20
0
  30
0
  0
VERTEX
  5
cc
  8
Layer_0
  10
364.99999
  20
310
  0
VERTEX
  5
cd
  8
Layer_0
  10
365.01549
  20
310.51122
  0
VERTEX
  5
ce
  8
Layer_0
  10
365.06098
  20
311.00767
  0
VERTEX
  5
cf
  8
Layer_0
  10
365.13495
  20
311.48685
  0
VERTEX
  5
d0
  8
Layer_0
  10
365.2359
  20
311.94623
  0
VERTEX
  5
d1
  8
Layer_0
  10
365.36232
  20
312.3833
  0
VERTEX
  5
d2
  8
Layer_0
  10
365.51269
  20
312.79555
  0
VERTEX
  5
d3
  8
Layer_0
  10
365.6855
  20
313.18046
  0
VERTEX
  5
d4
  8
Layer_0
  10
365.87926
  20
313.53553
  0
VERTEX
  5
d5
  8
Layer_0
  10
366.09245
  20
313.85824
  0
VERTEX
  5
d6
  8
Layer_0
  10
366.32355
  20
314.14608
  0
VERTEX
  5
d7
  8
Layer_0
  10
366.57107
  20
314.39653
  0
VERTEX
  5
d8
  8
Layer_0
  10
366.83349
  20
314.60708
  0
VERTEX
  5
d9
  8
Layer_0
  10
367.1093
  20
314.77521
  0
VERTEX
  5
da
  8
Layer_0
  10
367.397
  20
314.89842
  0
VERTEX
  5
db
  8
Layer_0
  10
367.69507
  20
314.97419
  0
VERTEX
  5
dc
  8
Layer_0
  10
368.00201
  20
315
  0
SEQEND
  0
POLYLINE
  5
de
  8
Layer_0
  62
7
  66
1
  10
0
  20
0
  30
0
  0
VERTEX
  5
de
  8
Layer_0
  10
345
  20
362.01819
  0
VERTEX
  5
df
  8
Layer_0
  10
345
  20
338.00208
  0
SEQEND
  0
POLYLINE
  5
e1
  8
Layer_0
  62
7
  66
1
  10
0
  20
0
  30
0
  0
VERTEX
  5
e1
  8
Layer_0
  10
335
  20
338.00208
  0
VERTEX
  5
e2
  8
Layer_0
  10
335
  20
362.01819
  0
SEQEND
  0
POLYLINE
  5
e4
  8
Layer_0
  62
7
  66
1
  10
0
  20
0
  30
0
  0
VERTEX
  5
e4
  8
Layer_0
  10
340
  20
365.02027
  0
VERTEX
  5
e5
  8
Layer_0
  10
340.51122
  20
365.00477
  0
VERTEX
  5
e6
  8
Layer_0
  10
341.00767
  20
364.95928
  0
VERTEX
  5
e7
  8
Layer_0
  10
341.48685
  20
364.8853
  0
VERTEX
  5
e8
  8
Layer_0
  10
341.94623
  20
364.78436
  0
VERTEX
  5
e9
  8
Layer_0
  10
342.3833
  20
364.65794
  0
VERTEX
  5
ea
  8
Layer_0
  10
342.79555
  20
364.50757
  0
VERTEX
  5
eb
  8
Layer_0
  10
343.18046
  20
364.33475
  0
VERTEX
  5
ec
  8
Layer_0
  10
343.53553
  20
364.141
  0
VERTEX
  5
ed
  8
Layer_0
  10
343.85824
  20
363.92781
  0
VERTEX
  5
ee
  8
Layer_0
  10
344.14608
  20
363.69671
  0
VERTEX
  5
ef
  8
Layer_0
  10
344.39653
  20
363.44919
  0
VERTEX
  5
f0
  8
Layer_0
  10
344.60708
  20
363.18677
  0
VERTEX
  5
f1
  8
Layer_0
  10
344.77521
  20
362.91096
  0
VERTEX
  5
f2
  8
Layer_0
  10
344.89842
  20
362.62326
  0
VERTEX
  5
f3
  8
Layer_0
  10
344.97419
  20
362.32519
  0
VERTEX
  5
f4
  8
Layer_0
  10
345
  20
362.01825
  0
SEQEND
  0
POLYLINE
  5
f6
  8
Layer_0
  62
7
  66
1
  10
0
  20
0
  30
0
  0
VERTEX
  5
f6
  8
Layer_0
  10
335
  20
362.01825
  0
VERTEX
  5
f7
  8
Layer_0
  10
335.02581
  20
362.32519
  0
VERTEX
  5
f8
  8
Layer_0
  10
335.10158
  20
362.62326
  0
VERTEX
  5
f9
  8
Layer_0
  10
335.22479
  20
362.91096
  0
VERTEX
  5
fa
  8
Layer_0
  10
335.39292
  20
363.18677
  0
VERTEX
  5
fb
  8
Layer_0
  10
335.60347
  20
363.44919
  0
VERTEX
  5
fc
  8
Layer_0
  10
335.85392
  20
363.69671
  0
VERTEX
  5
fd
  8
Layer_0
  10
336.14176
  20
363.92781
  0
VERTEX
  5
fe
  8
Layer_0
  10
336.46447
  20
364.141
  0
VERTEX
  5
ff
  8
Layer_0
  10
336.81954
  20
364.33475
  0
VERTEX
  5
100
  8
Layer_0
  10
337.20445
  20
364.50757
  0
VERTEX
  5
101
  8
Layer_0
  10
337.6167
  20
364.65794
  0
VERTEX
  5
102
  8
Layer_0
  10
338.05377
  20
364.78436
  0
VERTEX
  5
103
  8
Layer_0
  10
338.51315
  20
364.8853
  0
VERTEX
  5
104
  8
Layer_0
  10
338.99233
  20
364.95928
  0
VERTEX
  5
105
  8
Layer_0
  10
339.48878
  20
365.00477
  0
VERTEX
  5
106
  8
Layer_0
  10
340
  20
365.02027
  0
SEQEND
  0
POLYLINE
  5
108
  8
Layer_0
  62
7
  66
1
  10
0
  20
0
  30
0
  0
VERTEX
  5
108
  8
Layer_0
  10
345
  20
338.00208
  0
VERTEX
  5
109
  8
Layer_0
  10
344.97419
  20
337.69514
  0
VERTEX
  5
10a
  8
Layer_0
  10
344.89842
  20
337.39706
  0
VERTEX
  5
10b
  8
Layer_0
  10
344.77521
  20
337.10937
  0
VERTEX
  5
10c
  8
Layer_0
  10
344.60708
  20
336.83355
  0
VERTEX
  5
10d
  8
Layer_0
  10
344.39653
  20
336.57113
  0
VERTEX
  5
10e
  8
Layer_0
  10
344.14608
  20
336.32362
  0
VERTEX
  5
10f
  8
Layer_0
  10
343.85824
  20
336.09251
  0
VERTEX
  5
110
  8
Layer_0
  10
343.53553
  20
335.87933
  0
VERTEX
  5
111
  8
Layer_0
  10
343.18046
  20
335.68557
  0
VERTEX
  5
112
  8
Layer_0
  10
342.79555
  20
335.51275
  0
VERTEX
  5
113
  8
Layer_0
  10
342.3833
  20
335.36238
  0
VERTEX
  5
114
  8
Layer_0
  10
341.94623
  20
335.23597
  0
VERTEX
  5
115
  8
Layer_0
  10
341.48685
  20
335.13502
  0
VERTEX
  5
116
  8
Layer_0
  10
341.00767
  20
335.06105
  0
VERTEX
  5
117
  8
Layer_0
  10
340.51122
  20
335.01555
  0
VERTEX
  5
118
  8
Layer_0
  10
340
  20
335.00006
  0
SEQEND
  0
POLYLINE
  5
11a
  8
Layer_0
  62
7
  66
1
  10
0
  20
0
  30
0
  0
VERTEX
  5
11a
  8
Layer_0
  10
340
  20
335.00006
  0
VERTEX
  5
11b
  8
Layer_0
  10
339.48878
  20
335.01555
  0
VERTEX
  5
11c
  8
Layer_0
  10
338.99233
  20
335.06105
  0
VERTEX
  5
11d
  8
Layer_0
  10
338.51315
  20
335.13502
  0
VERTEX
  5
11e
  8
Layer_0
  10
338.05377
  20
335.23597
  0
VERTEX
  5
11f
  8
Layer_0
  10
337.6167
  20
335.36238
  0
VERTEX
  5
120
  8
Layer_0
  10
337.20445
  20
335.51275
  0
VERTEX
  5
121
  8
Layer_0
  10
336.81954
  20
335.68557
  0
VERTEX
  5
122
  8
Layer_0
  10
336.46447
  20
335.87933
  0
VERTEX
  5
123
  8
Layer_0
  10
336.14176
  20
336.09251
  0
VERTEX
  5
124
  8
Layer_0
  10
335.85392
  20
336.32362
  0
VERTEX
  5
125
  8
Layer_0
  10
335.60347
  20
336.57113
  0
VERTEX
  5
126
  8
Layer_0
  10
335.39292
  20
336.83355
  0
VERTEX
  5
127
  8
Layer_0
  10
335.22479
  20
337.10937
  0
VERTEX
  5
128
  8
Layer_0
  10
335.10158
  20
337.39706
  0
VERTEX
  5
129
  8
Layer_0
  10
335.02581
  20
337.69514
  0
VERTEX
  5
12a
  8
Layer_0
  10
335
  20
338.00208
  0
SEQEND
  0
POLYLINE
  5
12c
  8
Layer_0
  62
7
  66
1
  10
0
  20
0
  30
0
  0
VERTEX
  5
12c
  8
Layer_0
  10
335
  20
257.98163
  0
VERTEX
  5
12d
  8
Layer_0
  10
335
  20
281.99786
  0
SEQEND
  0
POLYLINE
  5
12f
  8
Layer_0
  62
7
  66
1
  10
0
  20
0
  30
0
  0
VERTEX
  5
12f
  8
Layer_0
  10
345
  20
281.99786
  0
VERTEX
  5
130
  8
Layer_0
  10
345
  20
257.98163
  0
SEQEND
  0
POLYLINE
  5
132
  8
Layer_0
  62
7
  66
1
  10
0
  20
0
  30
0
  0
VERTEX
  5
132
  8
Layer_0
  10
340
  20
254.9796
  0
VERTEX
  5
133
  8
Layer_0
  10
339.48878
  20
254.9951
  0
VERTEX
  5
134
  8
Layer_0
  10
338.99233
  20
255.04059
  0
VERTEX
  5
135
  8
Layer_0
  10
338.51315
  20
255.11457
  0
VERTEX
  5
136
  8
Layer_0
  10
338.05377
  20
255.21552
  0
VERTEX
  5
137
  8
Layer_0
  10
337.6167
  20
255.34193
  0
VERTEX
  5
138
  8
Layer_0
  10
337.20445
  20
255.4923
  0
VERTEX
  5
139
  8
Layer_0
  10
336.81954
  20
255.66512
  0
VERTEX
  5
13a
  8
Layer_0
  10
336.46447
  20
255.85888
  0
VERTEX
  5
13b
  8
Layer_0
  10
336.14176
  20
256.07206
  0
VERTEX
  5
13c
  8
Layer_0
  10
335.85392
  20
256.30317
  0
VERTEX
  5
13d
  8
Layer_0
  10
335.60347
  20
256.55068
  0
VERTEX
  5
13e
  8
Layer_0
  10
335.39292
  20
256.8131
  0
VERTEX
  5
13f
  8
Layer_0
  10
335.22479
  20
257.08892
  0
VERTEX
  5
140
  8
Layer_0
  10
335.10158
  20
257.37662
  0
VERTEX
  5
141
  8
Layer_0
  10
335.02581
  20
257.67469
  0
VERTEX
  5
142
  8
Layer_0
  10
335
  20
257.98163
  0
SEQEND
  0
POLYLINE
  5
144
  8
Layer_0
  62
7
  66
1
  10
0
  20
0
  30
0
  0
VERTEX
  5
144
  8
Layer_0
  10
345
  20
257.98163
  0
VERTEX
  5
145
  8
Layer_0
  10
344.97419
  20
257.67469
  0
VERTEX
  5
146
  8
Layer_0
  10
344.89842
  20
257.37662
  0
VERTEX
  5
147
  8
Layer_0
  10
344.77521
  20
257.08892
  0
VERTEX
  5
148
  8
Layer_0
  10
344.60708
  20
256.8131
  0
VERTEX
  5
149
  8
Layer_0
  10
344.39653
  20
256.55068
  0
VERTEX
  5
14a
  8
Layer_0
  10
344.14608
  20
256.30317
  0
VERTEX
  5
14b
  8
Layer_0
  10
343.85824
  20
256.07206
  0
VERTEX
  5
14c
  8
Layer_0
  10
343.53553
  20
255.85888
  0
VERTEX
  5
14d
  8
Layer_0
  10
343.18046
  20
255.66512
  0
VERTEX
  5
14e
  8
Layer_0
  10
342.79555
  20
255.4923
  0
VERTEX
  5
14f
  8
Layer_0
  10
342.3833
  20
255.34193
  0
VERTEX
  5
150
  8
Layer_0
  10
341.94623
  20
255.21552
  0
VERTEX
  5
151
  8
Layer_0
  10
341.48685
  20
255.11457
  0
VERTEX
  5
152
  8
Layer_0
  10
341.00767
  20
255.04059
  0
VERTEX
  5
153
  8
Layer_0
  10
340.51122
  20
254.9951
  0
VERTEX
  5
154
  8
Layer_0
  10
340
  20
254.9796
  0
SEQEND
  0
POLYLINE
  5
156
  8
Layer_0
  62
7
  66
1
  10
0
  20
0
  30
0
  0
VERTEX
  5
156
  8
Layer_0
  10
335
  20
281.9978
  0
VERTEX
  5
157
  8
Layer_0
  10
335.02581
  20
282.30474
  0
VERTEX
  5
158
  8
Layer_0
  10
335.10158
  20
282.60282
  0
VERTEX
  5
159
  8
Layer_0
  10
335.22479
  20
282.89051
  0
VERTEX
  5
15a
  8
Layer_0
  10
335.39292
  20
283.16633
  0
VERTEX
  5
15b
  8
Layer_0
  10
335.60347
  20
283.42875
  0
VERTEX
  5
15c
  8
Layer_0
  10
335.85392
  20
283.67626
  0
VERTEX
  5
15d
  8
Layer_0
  10
336.14176
  20
283.90737
  0
VERTEX
  5
15e
  8
Layer_0
  10
336.46447
  20
284.12056
  0
VERTEX
  5
15f
  8
Layer_0
  10
336.81954
  20
284.31431
  0
VERTEX
  5
160
  8
Layer_0
  10
337.20445
  20
284.48713
  0
VERTEX
  5
161
  8
Layer_0
  10
337.6167
  20
284.6375
  0
VERTEX
  5
162
  8
Layer_0
  10
338.05377
  20
284.76392
  0
VERTEX
  5
163
  8
Layer_0
  10
338.51315
  20
284.86486
  0
VERTEX
  5
164
  8
Layer_0
  10
338.99233
  20
284.93884
  0
VERTEX
  5
165
  8
Layer_0
  10
339.48878
  20
284.98433
  0
VERTEX
  5
166
  8
Layer_0
  10
340
  20
284.99983
  0
SEQEND
  0
POLYLINE
  5
168
  8
Layer_0
  62
7
  66
1
  10
0
  20
0
  30
0
  0
VERTEX
  5
168
  8
Layer_0
  10
340
  20
284.99983
  0
VERTEX
  5
169
  8
Layer_0
  10
340.51122
  20
284.98433
  0
VERTEX
  5
16a
  8
Layer_0
  10
341.00767
  20
284.93884
  0
VERTEX
  5
16b
  8
Layer_0
  10
341.48685
  20
284.86486
  0
VERTEX
  5
16c
  8
Layer_0
  10
341.94623
  20
284.76391
  0
VERTEX
  5
16d
  8
Layer_0
  10
342.3833
  20
284.6375
  0
VERTEX
  5
16e
  8
Layer_0
  10
342.79555
  20
284.48713
  0
VERTEX
  5
16f
  8
Layer_0
  10
343.18046
  20
284.31431
  0
VERTEX
  5
170
  8
Layer_0
  10
343.53553
  20
284.12056
  0
VERTEX
  5
171
  8
Layer_0
  10
343.85824
  20
283.90737
  0
VERTEX
  5
172
  8
Layer_0
  10
344.14608
  20
283.67626
  0
VERTEX
  5
173
  8
Layer_0
  10
344.39653
  20
283.42875
  0
VERTEX
  5
174
  8
Layer_0
  10
344.60708
  20
283.16633
  0
VERTEX
  5
175
  8
Layer_0
  10
344.77521
  20
282.89051
  0
VERTEX
  5
176
  8
Layer_0
  10
344.89842
  20
282.60282
  0
VERTEX
  5
177
  8
Layer_0
  10
344.97419
  20
282.30474
  0
VERTEX
  5
178
  8
Layer_0
  10
345
  20
281.9978
  0
SEQEND
  0
POLYLINE
  5
17a
  8
Layer_0
  62
7
  66
1
  10
0
  20
0
  30
0
  0
VERTEX
  5
17a
  8
Layer_0
  10
287.98175
  20
315.00006
  0
VERTEX
  5
17b
  8
Layer_0
  10
311.99799
  20
315.00006
  0
SEQEND
  0
POLYLINE
  5
17d
  8
Layer_0
  62
7
  66
1
  10
0
  20
0
  30
0
  0
VERTEX
  5
17d
  8
Layer_0
  10
311.99799
  20
305.00006
  0
VERTEX
  5
17e
  8
Layer_0
  10
287.98175
  20
305.00006
  0
SEQEND
  0
POLYLINE
  5
180
  8
Layer_0
  62
7
  66
1
  10
0
  20
0
  30
0
  0
VERTEX
  5
180
  8
Layer_0
  10
284.97975
  20
310.00006
  0
VERTEX
  5
181
  8
Layer_0
  10
284.99525
  20
310.51128
  0
VERTEX
  5
182
  8
Layer_0
  10
285.04075
  20
311.00774
  0
VERTEX
  5
183
  8
Layer_0
  10
285.11472
  20
311.48691
  0
VERTEX
  5
184
  8
Layer_0
  10
285.21567
  20
311.94629
  0
VERTEX
  5
185
  8
Layer_0
  10
285.34208
  20
312.38336
  0
VERTEX
  5
186
  8
Layer_0
  10
285.49245
  20
312.79561
  0
VERTEX
  5
187
  8
Layer_0
  10
285.66527
  20
313.18053
  0
VERTEX
  5
188
  8
Layer_0
  10
285.85903
  20
313.5356
  0
VERTEX
  5
189
  8
Layer_0
  10
286.07221
  20
313.8583
  0
VERTEX
  5
18a
  8
Layer_0
  10
286.30332
  20
314.14614
  0
VERTEX
  5
18b
  8
Layer_0
  10
286.55084
  20
314.39659
  0
VERTEX
  5
18c
  8
Layer_0
  10
286.81326
  20
314.60714
  0
VERTEX
  5
18d
  8
Layer_0
  10
287.08907
  20
314.77527
  0
VERTEX
  5
18e
  8
Layer_0
  10
287.37677
  20
314.89848
  0
VERTEX
  5
18f
  8
Layer_0
  10
287.67484
  20
314.97425
  0
VERTEX
  5
190
  8
Layer_0
  10
287.98178
  20
315.00006
  0
SEQEND
  0
POLYLINE
  5
192
  8
Layer_0
  62
7
  66
1
  10
0
  20
0
  30
0
  0
VERTEX
  5
192
  8
Layer_0
  10
287.98178
  20
305.00006
  0
VERTEX
  5
193
  8
Layer_0
  10
287.67484
  20
305.02588
  0
VERTEX
  5
194
  8
Layer_0
  10
287.37677
  20
305.10164
  0
VERTEX
  5
195
  8
Layer_0
  10
287.08907
  20
305.22485
  0
VERTEX
  5
196
  8
Layer_0
  10
286.81326
  20
305.39299
  0
VERTEX
  5
197
  8
Layer_0
  10
286.55084
  20
305.60353
  0
VERTEX
  5
198
  8
Layer_0
  10
286.30332
  20
305.85398
  0
VERTEX
  5
199
  8
Layer_0
  10
286.07221
  20
306.14182
  0
VERTEX
  5
19a
  8
Layer_0
  10
285.85903
  20
306.46453
  0
VERTEX
  5
19b
  8
Layer_0
  10
285.66527
  20
306.8196
  0
VERTEX
  5
19c
  8
Layer_0
  10
285.49245
  20
307.20451
  0
VERTEX
  5
19d
  8
Layer_0
  10
285.34208
  20
307.61676
  0
VERTEX
  5
19e
  8
Layer_0
  10
285.21567
  20
308.05384
  0
VERTEX
  5
19f
  8
Layer_0
  10
285.11472
  20
308.51321
  0
VERTEX
  5
1a0
  8
Layer_0
  10
285.04075
  20
308.99239
  0
VERTEX
  5
1a1
  8
Layer_0
  10
284.99525
  20
309.48884
  0
VERTEX
  5
1a2
  8
Layer_0
  10
284.97975
  20
310.00006
  0
SEQEND
  0
POLYLINE
  5
1a4
  8
Layer_0
  62
7
  66
1
  10
0
  20
0
  30
0
  0
VERTEX
  5
1a4
  8
Layer_0
  10
311.99799
  20
315.00006
  0
VERTEX
  5
1a5
  8
Layer_0
  10
312.30493
  20
314.97425
  0
VERTEX
  5
1a6
  8
Layer_0
  10
312.603
  20
314.89848
  0
VERTEX
  5
1a7
  8
Layer_0
  10
312.8907
  20
314.77527
  0
VERTEX
  5
1a8
  8
Layer_0
  10
313.16651
  20
314.60714
  0
VERTEX
  5
1a9
  8
Layer_0
  10
313.42893
  20
314.39659
  0
VERTEX
  5
1aa
  8
Layer_0
  10
313.67645
  20
314.14614
  0
VERTEX
  5
1ab
  8
Layer_0
  10
313.90755
  20
313.8583
  0
VERTEX
  5
1ac
  8
Layer_0
  10
314.12074
  20
313.53559
  0
VERTEX
  5
1ad
  8
Layer_0
  10
314.3145
  20
313.18052
  0
VERTEX
  5
1ae
  8
Layer_0
  10
314.48731
  20
312.79561
  0
VERTEX
  5
1af
  8
Layer_0
  10
314.63768
  20
312.38336
  0
VERTEX
  5
1b0
  8
Layer_0
  10
314.7641
  20
311.94629
  0
VERTEX
  5
1b1
  8
Layer_0
  10
314.86505
  20
311.48691
  0
VERTEX
  5
1b2
  8
Layer_0
  10
314.93902
  20
311.00773
  0
VERTEX
  5
1b3
  8
Layer_0
  10
314.98451
  20
310.51128
  0
VERTEX
  5
1b4
  8
Layer_0
  10
315.00001
  20
310.00006
  0
SEQEND
  0
POLYLINE
  5
1b6
  8
Layer_0
  62
7
  66
1
  10
0
  20
0
  30
0
  0
VERTEX
  5
1b6
  8
Layer_0
  10
315.00001
  20
310.00006
  0
VERTEX
  5
1b7
  8
Layer_0
  10
314.98451
  20
309.48884
  0
VERTEX
  5
1b8
  8
Layer_0
  10
314.93902
  20
308.99239
  0
VERTEX
  5
1b9
  8
Layer_0
  10
314.86505
  20
308.51321
  0
VERTEX
  5
1ba
  8
Layer_0
  10
314.7641
  20
308.05384
  0
VERTEX
  5
1bb
  8
Layer_0
  10
314.63768
  20
307.61676
  0
VERTEX
  5
1bc
  8
Layer_0
  10
314.48731
  20
307.20451
  0
VERTEX
  5
1bd
  8
Layer_0
  10
314.3145
  20
306.8196
  0
VERTEX
  5
1be
  8
Layer_0
  10
314.12074
  20
306.46453
  0
VERTEX
  5
1bf
  8
Layer_0
  10
313.90755
  20
306.14182
  0
VERTEX
  5
1c0
  8
Layer_0
  10
313.67645
  20
305.85398
  0
VERTEX
  5
1c1
  8
Layer_0
  10
313.42893
  20
305.60353
  0
VERTEX
  5
1c2
  8
Layer_0
  10
313.16651
  20
305.39299
  0
VERTEX
  5
1c3
  8
Layer_0
  10
312.8907
  20
305.22485
  0
VERTEX
  5
1c4
  8
Layer_0
  10
312.603
  20
305.10164
  0
VERTEX
  5
1c5
  8
Layer_0
  10
312.30493
  20
305.02588
  0
VERTEX
  5
1c6
  8
Layer_0
  10
311.99799
  20
305.00006
  0
SEQEND
  0
CIRCLE
  5
1c8
  8
Layer_0
  62
7
  10
385.96191
  20
264.03809
  30
0
  40
17.5
  0
CIRCLE
  5
1c8
  8
Layer_0
  62
7
  10
294.03809
  20
355.96198
  30
0
  40
17.5
  0
CIRCLE
  5
1c8
  8
Layer_0
  62
7
  10
294.03809
  20
264.03815
  30
0
  40
17.499998
  0
CIRCLE
  5
1c8
  8
Layer_0
  62
7
  10
385.96194
  20
355.96204
  30
0
  40
17.499998
  0
CIRCLE
  5
1c8
  8
Layer_0
  62
7
  10
340.00299
  20
427.10175
  30
0
  40
3.1500299
  0
CIRCLE
  5
1c8
  8
Layer_0
  62
7
  10
340.00299
  20
192.89825
  30
0
  40
3.1500299
  0
CIRCLE
  5
1c8
  8
Layer_0
  62
7
  10
387.6333
  20
416.97601
  30
0
  40
3.150032
  0
CIRCLE
  5
1c8
  8
Layer_0
  62
7
  10
292.37454
  20
203.02167
  30
0
  40
3.150032
  0
CIRCLE
  5
1c8
  8
Layer_0
  62
7
  10
427.02765
  20
388.35352
  30
0
  40
3.1500404
  0
CIRCLE
  5
1c8
  8
Layer_0
  62
7
  10
252.98112
  20
231.64105
  30
0
  40
3.1500432
  0
CIRCLE
  5
1c8
  8
Layer_0
  62
7
  10
451.37402
  20
346.1817
  30
0
  40
3.1500456
  0
CIRCLE
  5
1c8
  8
Layer_0
  62
7
  10
228.63411
  20
273.80847
  30
0
  40
3.1500452
  0
ELLIPSE
  5
1c8
  8
Layer_0
  62
7
  10
456.46289
  20
297.75421
  30
0
  11
-0.32928467
  21
-3.1328125
  31
0
  40
1
  41
0
  42
6.2831855
  0
ELLIPSE
  5
1c8
  8
Layer_0
  62
7
  10
223.54333
  20
322.23535
  30
0
  11
3.1328125
  21
-0.32928467
  31
0
  40
0.99999952
  41
0
  42
6.2831855
  0
CIRCLE
  5
1c8
  8
Layer_0
  62
7
  10
441.41443
  20
251.44299
  30
0
  40
3.150043
  0
CIRCLE
  5
1c8
  8
Layer_0
  62
7
  10
238.589
  20
368.54303
  30
0
  40
3.1500447
  0
CIRCLE
  5
1c8
  8
Layer_0
  62
7
  10
408.83044
  20
215.25562
  30
0
  40
3.1500344
  0
CIRCLE
  5
1c8
  8
Layer_0
  62
7
  10
271.16968
  20
404.73029
  30
0
  40
3.1500387
  0
CIRCLE
  5
1c8
  8
Layer_0
  62
7
  10
364.34512
  20
195.45068
  30
0
  40
3.1500306
  0
CIRCLE
  5
1c8
  8
Layer_0
  62
7
  10
315.65186
  20
424.53601
  30
0
  40
3.1500306
  0
CIRCLE
  5
1c8
  8
Layer_0
  62
7
  10
315.65039
  20
195.45203
  30
0
  40
3.1500306
  0
CIRCLE
  5
1c8
  8
Layer_0
  62
7
  10
364.34387
  20
424.53711
  30
0
  40
3.1500306
  0
CIRCLE
  5
1c8
  8
Layer_0
  62
7
  10
271.16617
  20
215.25928
  30
0
  40
3.1500387
  0
CIRCLE
  5
1c8
  8
Layer_0
  62
7
  10
408.82693
  20
404.73303
  30
0
  40
3.1500344
  0
CIRCLE
  5
1c8
  8
Layer_0
  62
7
  10
238.58376
  20
251.44696
  30
0
  40
3.1500447
  0
CIRCLE
  5
1c8
  8
Layer_0
  62
7
  10
441.40924
  20
368.54889
  30
0
  40
3.150043
  0
ELLIPSE
  5
1c8
  8
Layer_0
  62
7
  10
223.53712
  20
297.75873
  30
0
  11
-3.1328125
  21
-0.32928467
  31
0
  40
0.99999952
  41
0
  42
6.2831855
  0
CIRCLE
  5
1c8
  8
Layer_0
  62
7
  10
456.45673
  20
322.23975
  30
0
  40
3.1500735
  0
CIRCLE
  5
1c8
  8
Layer_0
  62
7
  10
228.62819
  20
346.18597
  30
0
  40
3.1500452
  0
CIRCLE
  5
1c8
  8
Layer_0
  62
7
  10
451.36798
  20
273.81458
  30
0
  40
3.1500456
  0
CIRCLE
  5
1c8
  8
Layer_0
  62
7
  10
252.97662
  20
388.35724
  30
0
  40
3.1500432
  0
CIRCLE
  5
1c8
  8
Layer_0
  62
7
  10
427.02301
  20
231.64447
  30
0
  40
3.1500432
  0
CIRCLE
  5
1c8
  8
Layer_0
  62
7
  10
292.3721
  20
416.97784
  30
0
  40
3.1500323
  0
CIRCLE
  5
1c8
  8
Layer_0
  62
7
  10
387.63086
  20
203.02356
  30
0
  40
3.1500323
  0
ENDSEC
  0
EOF
